<svg width="363" height="249" viewBox="0 0 363 249" fill="none" xmlns="http://www.w3.org/2000/svg">
<g filter="url(#filter0_dddddd_0_460)">
<path d="M94.2498 2.00335C94.8674 2 95.4791 2 96.0982 2H265.949C266.556 2 267.173 1.99983 267.779 2.00318C268.2 2.00578 268.628 2.01284 269.052 2.01981C269.147 2.02138 269.242 2.02294 269.336 2.02445C270.468 2.03689 271.597 2.13581 272.713 2.32033C273.834 2.50942 274.919 2.86329 275.935 3.37025C277.965 4.40464 279.618 6.04433 280.66 8.05869C281.169 9.0623 281.522 10.1369 281.705 11.2456C281.894 12.3538 281.998 13.4743 282.019 14.598C282.026 15.1115 282.026 15.6266 282.026 16.1402C282.039 16.7469 282.039 17.355 282.039 17.9684V53.0134C282.039 53.6316 282.039 54.2367 282.026 54.845C282.026 55.3649 282.026 55.8686 282.019 56.3887C281.998 57.5123 281.894 58.6328 281.705 59.7409C281.522 60.8503 281.17 61.9256 280.66 62.9297C280.142 63.9289 279.469 64.8412 278.665 65.6328C277.867 66.4313 276.945 67.0977 275.935 67.6066C274.919 68.1149 273.834 68.4709 272.713 68.6628C271.596 68.8459 270.468 68.9449 269.336 68.9589C268.822 68.9703 268.294 68.9768 267.779 68.9768C267.173 68.9802 266.556 68.9802 265.949 68.9802H96.0982C95.4791 68.9802 94.8674 68.9802 94.2499 68.9768C93.7329 68.9768 93.22 68.9703 92.6983 68.9589C91.5647 68.9441 90.4337 68.8451 89.315 68.6628C88.1978 68.4722 87.1159 68.1161 86.1055 67.6066C85.0939 67.098 84.1712 66.4316 83.3727 65.6328C82.5668 64.8442 81.895 63.9314 81.3835 62.9297C80.8698 61.9263 80.5139 60.851 80.3282 59.7409C80.1403 58.633 80.0391 57.5123 80.0257 56.3889C80.0149 56.0332 80.0107 55.6852 80.0065 55.3345C80.0046 55.1722 80.0026 55.0094 80 54.845V16.1402C80.0026 15.9759 80.0046 15.8114 80.0066 15.6469C80.0108 15.2972 80.015 14.9473 80.0257 14.5981C80.0391 13.4746 80.1402 12.3538 80.3282 11.2458C80.5144 10.1363 80.8703 9.06151 81.3835 8.05852C81.8952 7.05364 82.5669 6.1371 83.3727 5.34415C84.1743 4.54891 85.0964 3.88294 86.1055 3.37042C87.1159 2.86221 88.198 2.50825 89.315 2.3205C90.4335 2.13676 91.5646 2.03784 92.6983 2.02462C92.8052 2.02294 92.9117 2.02119 93.018 2.01945C93.4304 2.0127 93.8388 2.00601 94.2498 2.00335Z" fill="black"/>
</g>
<path d="M94.258 67.515C93.7435 67.515 93.2415 67.5085 92.7312 67.4971C91.6739 67.4835 90.6191 67.3923 89.5754 67.2242C88.6022 67.0579 87.6595 66.7486 86.7783 66.3065C85.9051 65.8682 85.1087 65.2934 84.4196 64.6042C83.7204 63.9232 83.1384 63.1333 82.6964 62.2658C82.2497 61.3927 81.9405 60.4568 81.7796 59.4908C81.606 58.4528 81.5121 57.4032 81.4987 56.3511C81.4879 55.998 81.4739 54.8223 81.4739 54.8223V16.1401C81.4739 16.1401 81.4887 14.9823 81.4987 14.6421C81.5116 13.5917 81.605 12.5437 81.7781 11.5074C81.9393 10.5387 82.2487 9.60016 82.6958 8.7242C83.136 7.85731 83.7148 7.06678 84.4096 6.38325C85.1038 5.69323 85.9027 5.11547 86.7774 4.67107C87.6566 4.2305 88.5976 3.92348 89.5688 3.7603C90.6159 3.59054 91.6744 3.4988 92.7354 3.48585L94.2588 3.46509H267.771L269.313 3.48635C270.364 3.49874 271.413 3.58976 272.451 3.75863C273.432 3.9239 274.383 4.23311 275.272 4.67609C277.024 5.57167 278.45 6.98858 279.349 8.72822C279.789 9.59818 280.094 10.5291 280.253 11.4895C280.428 12.5343 280.526 13.5904 280.546 14.6494C280.551 15.1237 280.551 15.633 280.551 16.1401C280.565 16.768 280.565 17.3656 280.565 17.9683V53.0133C280.565 53.6217 280.565 54.2153 280.551 54.8138C280.551 55.3583 280.551 55.8571 280.545 56.3705C280.525 57.4107 280.428 58.448 280.256 59.4742C280.098 60.4472 279.791 61.3904 279.344 62.2706C278.899 63.1287 278.321 63.9118 277.63 64.591C276.94 65.2839 276.142 65.862 275.267 66.3032C274.38 66.7486 273.431 67.059 272.451 67.2238C271.407 67.3929 270.352 67.4842 269.295 67.4969C268.79 67.5087 268.285 67.5146 267.78 67.5149L265.95 67.5182L94.258 67.515Z" fill="black"/>
<path d="M121.819 35.9942C121.837 34.5965 122.212 33.2262 122.907 32.0106C123.603 30.795 124.597 29.7737 125.798 29.0416C125.035 27.9613 124.029 27.0722 122.859 26.4451C121.69 25.8179 120.389 25.4698 119.059 25.4285C116.224 25.1333 113.476 27.1111 112.031 27.1111C110.558 27.1111 108.334 25.4578 105.938 25.5067C104.389 25.5563 102.879 26.0032 101.555 26.8037C100.232 27.6042 99.1401 28.731 98.3863 30.0744C95.121 35.6815 97.5566 43.9218 100.685 48.454C102.25 50.6734 104.078 53.1523 106.472 53.0644C108.814 52.9681 109.688 51.5833 112.515 51.5833C115.316 51.5833 116.136 53.0644 118.578 53.0085C121.091 52.9681 122.674 50.7794 124.184 48.539C125.309 46.9577 126.174 45.21 126.748 43.3606C125.288 42.7482 124.042 41.7231 123.166 40.4131C122.289 39.1032 121.821 37.5663 121.819 35.9942ZM117.207 22.4478C118.577 20.8164 119.252 18.7197 119.089 16.6027C116.996 16.8208 115.062 17.813 113.673 19.3817C112.994 20.1481 112.474 21.0397 112.143 22.0055C111.812 22.9713 111.676 23.9924 111.742 25.0104C112.789 25.0211 113.825 24.796 114.772 24.3521C115.719 23.9082 116.551 23.2571 117.207 22.4478ZM151.422 47.4461H143.431L141.511 53.0664H138.126L145.696 32.2724H149.213L156.783 53.0664H153.34L151.422 47.4461ZM144.258 44.8525H150.593L147.47 35.7311H147.383L144.258 44.8525ZM173.131 45.4871C173.131 50.1981 170.588 53.225 166.751 53.225C165.779 53.2754 164.813 53.0534 163.962 52.5843C163.112 52.1152 162.411 51.418 161.942 50.5726H161.869V58.0817H158.731V37.9059H161.769V40.4276H161.826C162.318 39.5862 163.03 38.8926 163.887 38.4207C164.744 37.9487 165.714 37.716 166.694 37.7474C170.573 37.7474 173.131 40.7889 173.131 45.4869V45.4871ZM169.905 45.4871C169.905 42.4177 168.306 40.3998 165.866 40.3998C163.468 40.3998 161.856 42.4601 161.856 45.4869C161.856 48.5417 163.468 50.5875 165.866 50.5875C168.306 50.5875 169.905 48.5843 169.905 45.4869V45.4871ZM189.955 45.4871C189.955 50.1981 187.413 53.225 183.576 53.225C182.604 53.2754 181.637 53.0533 180.787 52.5842C179.936 52.1152 179.236 51.418 178.766 50.5726H178.694V58.0817H175.556V37.9059H178.593V40.4276H178.651C179.142 39.5862 179.854 38.8926 180.711 38.4207C181.568 37.9487 182.538 37.716 183.518 37.7474C187.398 37.7474 189.955 40.7889 189.955 45.4869V45.4871ZM186.73 45.4871C186.73 42.4177 185.131 40.3998 182.69 40.3998C180.293 40.3998 178.68 42.4601 178.68 45.4869C178.68 48.5417 180.293 50.5875 182.69 50.5875C185.131 50.5875 186.73 48.5843 186.73 45.4869V45.4871ZM201.075 47.2728C201.307 49.3348 203.327 50.6888 206.087 50.6888C208.732 50.6888 210.634 49.3348 210.634 47.4754C210.634 45.8613 209.487 44.895 206.77 44.2327L204.052 43.5835C200.202 42.6612 198.415 40.8755 198.415 37.9778C198.415 34.39 201.568 31.9258 206.044 31.9258C210.474 31.9258 213.512 34.39 213.614 37.9778H210.446C210.257 35.9027 208.527 34.65 205.999 34.65C203.472 34.65 201.742 35.9175 201.742 37.7619C201.742 39.2321 202.847 40.0972 205.549 40.7593L207.859 41.3219C212.161 42.3308 213.948 44.0447 213.948 47.0861C213.948 50.9764 210.824 53.413 205.854 53.413C201.205 53.413 198.065 51.0335 197.863 47.2726L201.075 47.2728ZM220.72 34.3183V37.9059H223.627V40.3703H220.72V48.7281C220.72 50.0265 221.302 50.6315 222.58 50.6315C222.925 50.6255 223.27 50.6015 223.612 50.5595V53.0093C223.038 53.1157 222.454 53.1638 221.869 53.153C218.775 53.153 217.568 52.0002 217.568 49.06V40.3703H215.345V37.9059H217.568V34.3183H220.72ZM225.31 45.4871C225.31 40.7169 228.143 37.7196 232.56 37.7196C236.992 37.7196 239.812 40.7169 239.812 45.4871C239.812 50.2701 237.007 53.2544 232.56 53.2544C228.115 53.2544 225.31 50.2701 225.31 45.4871ZM236.615 45.4871C236.615 42.2149 235.103 40.2836 232.56 40.2836C230.018 40.2836 228.507 42.2295 228.507 45.4871C228.507 48.7723 230.018 50.6888 232.56 50.6888C235.103 50.6888 236.615 48.7723 236.615 45.4871ZM242.399 37.9059H245.391V40.4863H245.464C245.666 39.6804 246.142 38.9682 246.812 38.4694C247.482 37.9706 248.304 37.7156 249.141 37.7474C249.502 37.7461 249.863 37.785 250.216 37.8634V40.7742C249.759 40.6359 249.283 40.5723 248.806 40.5861C248.35 40.5678 247.896 40.6475 247.474 40.8198C247.052 40.9921 246.673 41.2528 246.362 41.5842C246.052 41.9156 245.817 42.3097 245.674 42.7395C245.532 43.1693 245.485 43.6246 245.536 44.0741V53.0664H242.399V37.9059ZM264.682 48.6136C264.26 51.3658 261.558 53.2544 258.1 53.2544C253.653 53.2544 250.893 50.2996 250.893 45.5589C250.893 40.8037 253.668 37.7196 257.968 37.7196C262.198 37.7196 264.857 40.6009 264.857 45.1976V46.2637H254.061V46.4518C254.011 47.0097 254.081 47.5718 254.267 48.1007C254.453 48.6296 254.751 49.1131 255.14 49.5193C255.528 49.9254 256 50.2449 256.523 50.4564C257.046 50.6679 257.608 50.7666 258.173 50.746C258.914 50.815 259.658 50.6447 260.294 50.2604C260.93 49.8762 261.425 49.2986 261.703 48.6136H264.682ZM254.076 44.0889H261.718C261.746 43.5872 261.669 43.0852 261.492 42.6143C261.316 42.1434 261.043 41.7138 260.691 41.3525C260.339 40.9912 259.915 40.7059 259.447 40.5147C258.978 40.3234 258.475 40.2302 257.968 40.241C257.457 40.238 256.951 40.3354 256.478 40.5276C256.005 40.7197 255.575 41.0028 255.214 41.3605C254.852 41.7183 254.565 42.1436 254.369 42.6118C254.174 43.0801 254.074 43.5821 254.076 44.0889ZM143.865 16.6206C144.523 16.5738 145.183 16.6724 145.798 16.9092C146.412 17.146 146.967 17.5152 147.42 17.9902C147.874 18.4651 148.215 19.034 148.42 19.6557C148.625 20.2774 148.688 20.9365 148.605 21.5854C148.605 24.7773 146.866 26.6122 143.865 26.6122H140.226V16.6205L143.865 16.6206ZM141.791 25.1991H143.69C144.16 25.227 144.631 25.1505 145.067 24.9753C145.504 24.8001 145.895 24.5306 146.214 24.1864C146.532 23.8422 146.769 23.4319 146.907 22.9855C147.045 22.5391 147.081 22.0677 147.012 21.6056C147.076 21.1454 147.036 20.677 146.896 20.2338C146.756 19.7906 146.518 19.3837 146.201 19.0422C145.883 18.7008 145.494 18.4332 145.06 18.2586C144.625 18.084 144.158 18.0069 143.69 18.0326H141.791V25.1991ZM150.373 22.8387C150.325 22.3432 150.382 21.8433 150.541 21.3709C150.699 20.8986 150.955 20.4643 151.293 20.096C151.63 19.7276 152.042 19.4333 152.501 19.2319C152.96 19.0305 153.456 18.9264 153.958 18.9264C154.46 18.9264 154.956 19.0305 155.415 19.2319C155.874 19.4333 156.286 19.7276 156.623 20.096C156.961 20.4643 157.217 20.8986 157.376 21.3709C157.534 21.8433 157.591 22.3432 157.543 22.8387C157.592 23.3348 157.536 23.8356 157.378 24.3088C157.22 24.782 156.964 25.2172 156.626 25.5864C156.289 25.9556 155.877 26.2506 155.417 26.4525C154.958 26.6544 154.461 26.7587 153.958 26.7587C153.456 26.7587 152.959 26.6544 152.499 26.4525C152.04 26.2506 151.628 25.9556 151.29 25.5864C150.952 25.2172 150.696 24.782 150.538 24.3088C150.38 23.8356 150.324 23.3348 150.373 22.8387ZM156 22.8387C156 21.2043 155.26 20.2485 153.961 20.2485C152.656 20.2485 151.923 21.2043 151.923 22.8387C151.923 24.4863 152.657 25.4347 153.961 25.4347C155.26 25.4347 156 24.4798 156 22.8387ZM167.075 26.6121H165.519L163.947 21.0588H163.829L162.264 26.6121H160.722L158.627 19.0718H160.149L161.511 24.8254H161.623L163.186 19.0718H164.625L166.188 24.8254H166.307L167.662 19.0718H169.163L167.075 26.6121ZM170.925 19.072H172.37V20.2697H172.482C172.672 19.8395 172.993 19.4788 173.399 19.238C173.806 18.9972 174.278 18.8882 174.751 18.9263C175.12 18.8987 175.492 18.954 175.837 19.0881C176.183 19.2223 176.493 19.4318 176.746 19.7011C176.999 19.9704 177.187 20.2927 177.297 20.644C177.407 20.9954 177.436 21.3668 177.382 21.7307V26.6119H175.882V22.1045C175.882 20.8928 175.351 20.2902 174.241 20.2902C173.99 20.2786 173.739 20.321 173.506 20.4145C173.273 20.508 173.063 20.6503 172.891 20.8318C172.718 21.0133 172.587 21.2296 172.507 21.4659C172.427 21.7022 172.399 21.953 172.426 22.2009V26.6121H170.925V19.072ZM179.773 16.1283H181.273V26.6121H179.773V16.1283ZM183.359 22.8387C183.311 22.3432 183.368 21.8431 183.527 21.3707C183.685 20.8984 183.941 20.464 184.279 20.0956C184.617 19.7272 185.028 19.4328 185.487 19.2314C185.946 19.03 186.443 18.9259 186.945 18.9259C187.447 18.9259 187.943 19.03 188.402 19.2314C188.861 19.4328 189.273 19.7272 189.61 20.0956C189.948 20.464 190.204 20.8984 190.363 21.3707C190.521 21.8431 190.578 22.3432 190.53 22.8387C190.579 23.3348 190.522 23.8354 190.364 24.3084C190.206 24.7815 189.95 25.2165 189.612 25.5855C189.275 25.9546 188.863 26.2495 188.404 26.4513C187.944 26.6531 187.447 26.7573 186.945 26.7573C186.442 26.7573 185.945 26.6531 185.486 26.4513C185.026 26.2495 184.615 25.9546 184.277 25.5855C183.939 25.2165 183.683 24.7815 183.525 24.3084C183.367 23.8354 183.31 23.3348 183.359 22.8387ZM188.986 22.8387C188.986 21.2043 188.246 20.2485 186.947 20.2485C185.642 20.2485 184.909 21.2043 184.909 22.8387C184.909 24.4863 185.643 25.4347 186.947 25.4347C188.246 25.4347 188.986 24.4798 188.986 22.8387ZM192.11 24.4798C192.11 23.1224 193.129 22.3399 194.938 22.2287L196.997 22.111V21.4601C196.997 20.6637 196.466 20.2141 195.441 20.2141C194.603 20.2141 194.023 20.5191 193.856 21.0522H192.403C192.557 19.757 193.785 18.9264 195.51 18.9264C197.416 18.9264 198.491 19.8675 198.491 21.4601V26.6121H197.046V25.5525H196.928C196.687 25.9325 196.348 26.2424 195.947 26.4504C195.546 26.6584 195.096 26.7571 194.644 26.7363C194.325 26.7692 194.002 26.7355 193.697 26.6372C193.392 26.5389 193.111 26.3783 192.872 26.1657C192.634 25.9531 192.442 25.6932 192.311 25.4028C192.18 25.1124 192.111 24.798 192.11 24.4798ZM196.997 23.8354V23.205L195.14 23.3227C194.093 23.3922 193.619 23.7455 193.619 24.4101C193.619 25.0888 194.212 25.4838 195.028 25.4838C195.267 25.5078 195.509 25.4839 195.739 25.4134C195.968 25.3429 196.181 25.2273 196.365 25.0735C196.549 24.9197 196.699 24.7309 196.808 24.5182C196.916 24.3055 196.981 24.0733 196.997 23.8354ZM200.463 22.8387C200.463 20.4561 201.698 18.9469 203.619 18.9469C204.094 18.9251 204.565 19.038 204.978 19.2723C205.391 19.5065 205.728 19.8525 205.95 20.2697H206.062V16.1282H207.563V26.6119H206.125V25.4205H206.006C205.767 25.8349 205.418 26.1766 204.997 26.4085C204.577 26.6404 204.1 26.7537 203.619 26.7362C201.685 26.7362 200.463 25.2268 200.463 22.8386V22.8387ZM202.013 22.8387C202.013 24.4379 202.773 25.4004 204.044 25.4004C205.309 25.4004 206.09 24.4242 206.09 22.8451C206.09 21.2738 205.3 20.2836 204.044 20.2836C202.781 20.2836 202.013 21.2525 202.013 22.8387ZM213.77 22.8387C213.723 22.3432 213.78 21.8433 213.938 21.3709C214.097 20.8986 214.353 20.4643 214.69 20.096C215.028 19.7276 215.439 19.4333 215.898 19.2319C216.357 19.0305 216.854 18.9264 217.356 18.9264C217.858 18.9264 218.354 19.0305 218.813 19.2319C219.272 19.4333 219.683 19.7276 220.021 20.096C220.359 20.4643 220.615 20.8986 220.773 21.3709C220.932 21.8433 220.989 22.3432 220.941 22.8387C220.99 23.3348 220.933 23.8356 220.775 24.3088C220.617 24.782 220.361 25.2172 220.024 25.5864C219.686 25.9556 219.274 26.2506 218.815 26.4525C218.355 26.6544 217.858 26.7587 217.356 26.7587C216.853 26.7587 216.356 26.6544 215.897 26.4525C215.437 26.2506 215.025 25.9556 214.688 25.5864C214.35 25.2172 214.094 24.782 213.936 24.3088C213.778 23.8356 213.722 23.3348 213.77 22.8387ZM219.398 22.8387C219.398 21.2043 218.657 20.2485 217.358 20.2485C216.054 20.2485 215.32 21.2043 215.32 22.8387C215.32 24.4863 216.054 25.4347 217.358 25.4347C218.657 25.4347 219.398 24.4798 219.398 22.8387ZM222.954 19.072H224.399V20.2697H224.511C224.701 19.8395 225.022 19.4788 225.428 19.238C225.835 18.9972 226.307 18.8882 226.779 18.9263C227.149 18.8987 227.521 18.954 227.866 19.0881C228.212 19.2223 228.522 19.4318 228.775 19.7011C229.028 19.9704 229.216 20.2927 229.326 20.644C229.436 20.9954 229.465 21.3668 229.411 21.7307V26.6119H227.911V22.1045C227.911 20.8928 227.38 20.2902 226.27 20.2902C226.019 20.2786 225.768 20.321 225.535 20.4145C225.302 20.508 225.092 20.6503 224.92 20.8318C224.747 21.0133 224.616 21.2296 224.536 21.4659C224.456 21.7022 224.428 21.953 224.455 22.2009V26.6121H222.954L222.954 19.072ZM237.889 17.1947V19.1063H239.536V20.3596H237.889V24.2368C237.889 25.0267 238.217 25.3726 238.964 25.3726C239.155 25.3719 239.346 25.3604 239.536 25.3381V26.5777C239.267 26.6256 238.994 26.651 238.72 26.6538C237.052 26.6538 236.387 26.0715 236.387 24.6179V20.3596H235.18V19.1061H236.387V17.1948L237.889 17.1947ZM241.586 16.1283H243.073V20.2836H243.192C243.391 19.8494 243.721 19.4867 244.136 19.2449C244.55 19.0032 245.03 18.8942 245.51 18.9328C245.878 18.9129 246.246 18.9739 246.587 19.1113C246.929 19.2486 247.236 19.4591 247.486 19.7276C247.736 19.9961 247.923 20.316 248.034 20.6646C248.145 21.0131 248.177 21.3817 248.128 21.744V26.6121H246.626V22.111C246.626 20.9065 246.061 20.2967 245.001 20.2967C244.743 20.2757 244.483 20.3109 244.24 20.3997C243.998 20.4886 243.778 20.629 243.595 20.811C243.413 20.9931 243.273 21.2125 243.185 21.4538C243.097 21.6952 243.063 21.9527 243.086 22.2083V26.6121H241.586V16.1283ZM256.877 24.576C256.673 25.2652 256.231 25.8613 255.629 26.2601C255.027 26.6589 254.302 26.835 253.583 26.7576C253.082 26.7707 252.584 26.6756 252.124 26.4788C251.664 26.282 251.252 25.9882 250.918 25.6179C250.584 25.2476 250.335 24.8097 250.189 24.3344C250.042 23.8591 250.002 23.358 250.071 22.8657C250.004 22.3719 250.045 21.8696 250.191 21.3929C250.337 20.9162 250.584 20.4762 250.917 20.1027C251.249 19.7291 251.659 19.4307 252.117 19.2278C252.576 19.0248 253.074 18.922 253.576 18.9263C255.691 18.9263 256.968 20.3596 256.968 22.7274V23.2467H251.599V23.33C251.576 23.6067 251.611 23.8853 251.702 24.1477C251.793 24.4102 251.939 24.6509 252.13 24.8542C252.32 25.0576 252.552 25.2192 252.809 25.3287C253.066 25.4383 253.344 25.4932 253.624 25.4902C253.983 25.5329 254.346 25.4688 254.668 25.306C254.99 25.1433 255.256 24.8892 255.432 24.576H256.877ZM251.599 22.1462H255.439C255.458 21.8931 255.423 21.6389 255.337 21.3999C255.251 21.161 255.116 20.9425 254.94 20.7585C254.763 20.5746 254.55 20.4292 254.314 20.3318C254.078 20.2344 253.823 20.1871 253.568 20.1929C253.308 20.1896 253.051 20.2379 252.81 20.335C252.57 20.432 252.352 20.5758 252.168 20.7578C251.985 20.9398 251.84 21.1565 251.742 21.3949C251.644 21.6334 251.596 21.8888 251.599 22.1462Z" fill="white"/>
<defs>
<filter id="filter0_dddddd_0_460" x="0" y="0.703704" width="362.039" height="248.277" filterUnits="userSpaceOnUse" color-interpolation-filters="sRGB">
<feFlood flood-opacity="0" result="BackgroundImageFix"/>
<feColorMatrix in="SourceAlpha" type="matrix" values="0 0 0 0 0 0 0 0 0 0 0 0 0 0 0 0 0 0 127 0" result="hardAlpha"/>
<feOffset dy="1.85185"/>
<feGaussianBlur stdDeviation="1.57407"/>
<feColorMatrix type="matrix" values="0 0 0 0 0.219608 0 0 0 0 0.219608 0 0 0 0 0.219608 0 0 0 0.0240741 0"/>
<feBlend mode="normal" in2="BackgroundImageFix" result="effect1_dropShadow_0_460"/>
<feColorMatrix in="SourceAlpha" type="matrix" values="0 0 0 0 0 0 0 0 0 0 0 0 0 0 0 0 0 0 127 0" result="hardAlpha"/>
<feOffset dy="8.14815"/>
<feGaussianBlur stdDeviation="3.25926"/>
<feColorMatrix type="matrix" values="0 0 0 0 0.219608 0 0 0 0 0.219608 0 0 0 0 0.219608 0 0 0 0.0392593 0"/>
<feBlend mode="normal" in2="effect1_dropShadow_0_460" result="effect2_dropShadow_0_460"/>
<feColorMatrix in="SourceAlpha" type="matrix" values="0 0 0 0 0 0 0 0 0 0 0 0 0 0 0 0 0 0 127 0" result="hardAlpha"/>
<feOffset dy="20"/>
<feGaussianBlur stdDeviation="6.5"/>
<feColorMatrix type="matrix" values="0 0 0 0 0.219608 0 0 0 0 0.219608 0 0 0 0 0.219608 0 0 0 0.05 0"/>
<feBlend mode="normal" in2="effect2_dropShadow_0_460" result="effect3_dropShadow_0_460"/>
<feColorMatrix in="SourceAlpha" type="matrix" values="0 0 0 0 0 0 0 0 0 0 0 0 0 0 0 0 0 0 127 0" result="hardAlpha"/>
<feOffset dy="38.5185"/>
<feGaussianBlur stdDeviation="12.7407"/>
<feColorMatrix type="matrix" values="0 0 0 0 0.219608 0 0 0 0 0.219608 0 0 0 0 0.219608 0 0 0 0.0607407 0"/>
<feBlend mode="normal" in2="effect3_dropShadow_0_460" result="effect4_dropShadow_0_460"/>
<feColorMatrix in="SourceAlpha" type="matrix" values="0 0 0 0 0 0 0 0 0 0 0 0 0 0 0 0 0 0 127 0" result="hardAlpha"/>
<feOffset dy="64.8148"/>
<feGaussianBlur stdDeviation="23.4259"/>
<feColorMatrix type="matrix" values="0 0 0 0 0.219608 0 0 0 0 0.219608 0 0 0 0 0.219608 0 0 0 0.0759259 0"/>
<feBlend mode="normal" in2="effect4_dropShadow_0_460" result="effect5_dropShadow_0_460"/>
<feColorMatrix in="SourceAlpha" type="matrix" values="0 0 0 0 0 0 0 0 0 0 0 0 0 0 0 0 0 0 127 0" result="hardAlpha"/>
<feOffset dy="100"/>
<feGaussianBlur stdDeviation="40"/>
<feColorMatrix type="matrix" values="0 0 0 0 0.219608 0 0 0 0 0.219608 0 0 0 0 0.219608 0 0 0 0.1 0"/>
<feBlend mode="normal" in2="effect5_dropShadow_0_460" result="effect6_dropShadow_0_460"/>
<feBlend mode="normal" in="SourceGraphic" in2="effect6_dropShadow_0_460" result="shape"/>
</filter>
</defs>
</svg>
