<svg width="363" height="249" viewBox="0 0 363 249" fill="none" xmlns="http://www.w3.org/2000/svg">
<g filter="url(#filter0_dddddd_0_464)">
<path d="M275.517 2H88.4439C84.3283 2 80.9609 5.76764 80.9609 10.3726V60.6077C80.9609 65.2127 84.3282 68.9803 88.4439 68.9803H275.517C279.633 68.9803 283 65.2127 283 60.6078V10.3726C283 5.76764 279.633 2 275.517 2Z" fill="black"/>
<path fill-rule="evenodd" clip-rule="evenodd" d="M88.4439 2H275.517C279.633 2 283 5.76764 283 10.3726V60.6078C283 65.2127 279.633 68.9803 275.517 68.9803H88.4439C84.3282 68.9803 80.9609 65.2127 80.9609 60.6077V10.3726C80.9609 5.76764 84.3283 2 88.4439 2Z" fill="black"/>
</g>
<path d="M274.667 68H89.3338C85.3005 68 82.0005 64.3438 82.0005 59.875V11.125C82.0005 6.65624 85.3005 3 89.3338 3H274.667C278.7 3 282 6.65624 282 11.125V59.875C282 64.3438 278.701 68 274.667 68Z" fill="black"/>
<path d="M151.927 19.1528C151.927 20.5557 151.555 21.6729 150.812 22.5063C149.967 23.4973 148.866 23.9931 147.513 23.9931C146.217 23.9931 145.115 23.4908 144.209 22.4847C143.301 21.4793 142.848 20.2326 142.848 18.7452C142.848 17.2571 143.301 16.0111 144.209 15.0049C145.115 13.9997 146.217 13.4966 147.513 13.4966C148.156 13.4966 148.771 13.6373 149.356 13.9179C149.941 14.1993 150.409 14.5727 150.76 15.0403L149.971 15.924C149.377 15.1293 148.558 14.7322 147.513 14.7322C146.567 14.7322 145.75 15.1038 145.06 15.8475C144.37 16.592 144.026 17.5573 144.026 18.7452C144.026 19.9331 144.37 20.8984 145.06 21.6429C145.75 22.3866 146.567 22.7582 147.513 22.7582C148.515 22.7582 149.351 22.3846 150.021 21.6364C150.455 21.149 150.706 20.4714 150.774 19.6014H147.513V18.3946H151.864C151.906 18.657 151.926 18.9088 151.926 19.1528" fill="white"/>
<path d="M151.927 19.1527H151.777C151.776 20.5237 151.418 21.5885 150.706 22.3879L150.704 22.3892L150.703 22.3906C149.886 23.3474 148.834 23.8236 147.513 23.8256C146.251 23.8236 145.195 23.3422 144.314 22.3663C143.434 21.3884 142.999 20.1946 142.997 18.7452C142.999 17.295 143.434 16.1019 144.314 15.1247C145.195 14.1481 146.251 13.666 147.513 13.664C148.136 13.664 148.73 13.8002 149.297 14.0716C149.864 14.3451 150.312 14.7034 150.646 15.1484L150.76 15.0403L150.654 14.9219L149.865 15.8062L149.971 15.9239L150.086 15.8168C149.464 14.9827 148.591 14.5623 147.513 14.5647C146.532 14.5634 145.67 14.9553 144.957 15.7272C144.237 16.5016 143.875 17.5213 143.876 18.7452C143.875 19.9691 144.237 20.9887 144.957 21.7632C145.67 22.5351 146.532 22.9269 147.513 22.9256C148.548 22.9276 149.431 22.5344 150.126 21.7547C150.591 21.234 150.854 20.5126 150.923 19.6157L150.937 19.4339H147.662V18.562H151.864V18.3945L151.716 18.424C151.757 18.6779 151.777 18.9192 151.777 19.1527H152.076C152.076 18.8982 152.055 18.6366 152.011 18.3646L151.989 18.2271H147.363V19.7688H150.774V19.6014L150.624 19.587C150.558 20.4295 150.319 21.064 149.915 21.5181C149.272 22.2349 148.482 22.5887 147.513 22.5907C146.602 22.5893 145.83 22.2387 145.164 21.5225C144.505 20.8088 144.177 19.8977 144.175 18.7452C144.177 17.5926 144.505 16.6815 145.164 15.9678C145.83 15.2516 146.602 14.901 147.513 14.8996C148.525 14.9023 149.289 15.2764 149.856 16.0319L149.962 16.1719L150.866 15.1587L150.963 15.0502L150.875 14.933C150.507 14.4425 150.017 14.0532 149.415 13.7642C148.812 13.4743 148.175 13.3291 147.513 13.3291C146.182 13.3278 145.034 13.8511 144.103 14.8866C143.168 15.9201 142.697 17.2192 142.698 18.7452C142.697 20.2705 143.168 21.5703 144.103 22.6044C145.034 23.6392 146.182 24.1619 147.513 24.1605C148.898 24.1619 150.048 23.647 150.92 22.622L150.812 22.5062L150.917 22.6247C151.693 21.758 152.077 20.5871 152.076 19.1527H151.926H151.927ZM158.825 14.9559H154.735V18.1415H158.423V19.3488H154.735V22.5344H158.825V23.7687H153.583V13.7216H158.825V14.9559Z" fill="white"/>
<path d="M158.825 14.9559V14.7885H154.586V18.309H158.274V19.1809L154.586 19.1813V22.7018H158.675V23.6012H153.732V13.8891H158.675V14.9559H158.825V14.7885V14.9559H158.974V13.5542H153.433V23.9361H158.974V22.367H154.885V19.5162H158.573V17.9741H154.885V15.1234H158.974V14.9559H158.825ZM163.69 23.7688H162.536V14.9559H160.028V13.7216H166.198V14.9559H163.69V23.7686" fill="white"/>
<path d="M163.691 23.7688V23.6012H162.686V14.7885H160.178V13.8892H166.049V14.7885H163.541V23.7687H163.691V23.6012V23.7687H163.84V15.1234H166.348V13.5542H159.878V15.1233H162.386V23.936H163.84V23.7686H163.691V23.7688ZM170.663 23.7688V13.7216H171.817V23.7686H170.663" fill="white"/>
<path d="M170.663 23.7688H170.813V13.8891H171.667V23.6012H170.663V23.7687H170.813H170.663V23.9361H171.966V13.5542H170.513V23.9361H170.663V23.7687V23.7688ZM176.935 23.7688H175.78V14.9559H173.272V13.7216H179.443V14.9559H176.935V23.7686" fill="white"/>
<path d="M176.935 23.7688V23.6013H175.93V14.7885H173.422V13.8892H179.293V14.7885H176.785V23.7687H176.935V23.6013V23.7687H177.085V15.1234H179.593V13.5542H173.123V15.1233H175.631V23.9361H177.085V23.7686H176.935V23.7688ZM185.392 21.6292C186.056 22.382 186.87 22.7581 187.831 22.7581C188.793 22.7581 189.607 22.382 190.27 21.6292C190.936 20.8764 191.269 19.914 191.269 18.7452C191.269 17.5765 190.936 16.6141 190.27 15.8612C189.607 15.1083 188.793 14.7322 187.831 14.7322C186.87 14.7322 186.056 15.1083 185.392 15.8612C184.728 16.6141 184.395 17.5764 184.395 18.7452C184.395 19.914 184.728 20.8764 185.392 21.6292ZM191.124 22.4703C190.241 23.486 189.143 23.9931 187.831 23.9931C186.518 23.9931 185.421 23.486 184.54 22.4703C183.657 21.4557 183.217 20.2137 183.217 18.7452C183.217 17.2766 183.657 16.0345 184.54 15.0201C185.421 14.0041 186.518 13.4966 187.831 13.4966C189.136 13.4966 190.231 14.0068 191.118 15.0266C192.004 16.0463 192.447 17.2858 192.447 18.7452C192.447 20.2137 192.005 21.4557 191.124 22.4703Z" fill="white"/>
<path d="M185.392 21.6292L185.285 21.7469C185.974 22.5299 186.834 22.9276 187.831 22.9256C188.827 22.9276 189.688 22.5299 190.376 21.7469C191.07 20.9632 191.419 19.9493 191.418 18.7452C191.419 17.5411 191.07 16.5271 190.376 15.7434C189.688 14.9604 188.827 14.5628 187.831 14.5647C186.834 14.5628 185.974 14.9604 185.285 15.7434C184.593 16.5271 184.243 17.5411 184.245 18.7452C184.243 19.9493 184.593 20.9632 185.285 21.7469L185.392 21.6292L185.498 21.5114C184.863 20.7886 184.546 19.8794 184.544 18.7452C184.546 17.611 184.863 16.7018 185.498 15.9789C186.139 15.2562 186.904 14.9017 187.831 14.8997C188.758 14.9017 189.525 15.2562 190.164 15.9789C190.8 16.7018 191.117 17.611 191.118 18.7452C191.117 19.8793 190.8 20.7886 190.164 21.5114C189.525 22.2342 188.758 22.5887 187.831 22.5906C186.904 22.5887 186.139 22.2342 185.498 21.5114L185.392 21.6292ZM191.124 22.4703L191.017 22.3539C190.158 23.3377 189.109 23.8237 187.831 23.8256C186.553 23.8236 185.503 23.3377 184.647 22.3539L184.643 22.3487L184.647 22.3539C183.79 21.3668 183.368 20.1764 183.366 18.7452C183.368 17.3139 183.79 16.1235 184.647 15.1365C185.503 14.1526 186.552 13.666 187.831 13.6641C189.101 13.666 190.148 14.1547 191.011 15.1436C191.87 16.1353 192.295 17.3238 192.297 18.7452C192.295 20.1764 191.871 21.3668 191.017 22.3539L191.124 22.4703L191.231 22.5866C192.138 21.5441 192.597 20.2509 192.596 18.7452C192.597 17.248 192.137 15.9574 191.225 14.9102C190.313 13.8589 189.171 13.3273 187.831 13.3291C186.484 13.3273 185.338 13.8564 184.432 14.9037V14.9029C183.523 15.9462 183.066 17.2394 183.067 18.7452C183.066 20.2509 183.523 21.5441 184.432 22.5873L184.436 22.592L184.432 22.5866C185.338 23.6339 186.484 24.1619 187.831 24.1605C189.177 24.1619 190.323 23.6339 191.231 22.5866L191.124 22.4703ZM194.066 23.7688V13.7216H195.47L199.834 21.5375H199.884L199.834 19.6013V13.7216H200.989V23.7686H199.784L195.219 15.5739H195.169L195.219 17.5108V23.7686H194.066" fill="white"/>
<path d="M194.066 23.7688H194.215V13.8891H195.387L199.751 21.705H200.037L199.984 19.5989V13.8892H200.839V23.6012H199.867L195.302 15.4066H195.015L195.069 17.5136V23.6012H194.066V23.7687H194.215H194.066V23.9361H195.368V17.5082L195.319 15.5695L195.169 15.574V15.7415H195.219V15.574L195.092 15.663L199.701 23.9361H201.138V13.5542H199.684V19.6033L199.734 21.5421L199.884 21.5376V21.3701H199.834V21.5376L199.961 21.4487L195.553 13.5542H193.916V23.9361H194.066V23.7687L194.066 23.7688ZM241 52.2353H243.792V31.302H241L241 52.2353ZM266.153 38.8427L262.952 47.9183H262.856L259.533 38.8426H256.525L261.507 51.5275L258.667 58.5834H261.581L269.258 38.8426L266.153 38.8427ZM250.316 49.8577C249.4 49.8577 248.125 49.3462 248.125 48.0799C248.125 46.4641 249.714 45.8448 251.085 45.8448C252.314 45.8448 252.89 46.141 253.637 46.5454C253.42 48.4841 251.928 49.8577 250.316 49.8577ZM250.653 38.3847C248.631 38.3847 246.537 39.3815 245.671 41.5899L248.149 42.7476C248.679 41.5899 249.665 41.2124 250.701 41.2124C252.145 41.2124 253.613 42.1824 253.637 43.906V44.1213C253.131 43.798 252.049 43.3134 250.724 43.3134C248.053 43.3134 245.332 44.9558 245.332 48.0262C245.332 50.8271 247.523 52.6317 249.978 52.6317C251.856 52.6317 252.89 51.6891 253.541 50.5851H253.637V52.2007H256.332V44.1748C256.332 40.4589 253.854 38.3847 250.653 38.3847ZM233.394 41.3909H229.422V34.2155H233.394C235.482 34.2155 236.667 36.1496 236.667 37.8031C236.667 39.4253 235.482 41.3909 233.394 41.3909ZM233.322 31.302H226.631V52.2353H229.422V44.3044H233.322C236.417 44.3044 239.46 41.7971 239.46 37.8031C239.46 33.8092 236.417 31.302 233.322 31.302ZM196.834 49.8616C194.905 49.8616 193.289 48.0543 193.289 45.572C193.289 43.0636 194.905 41.2288 196.834 41.2288C198.739 41.2288 200.233 43.0635 200.233 45.572C200.233 48.0543 198.739 49.8616 196.834 49.8616H196.834ZM200.04 40.0148H199.944C199.317 39.1787 198.111 38.4234 196.593 38.4234C193.41 38.4234 190.493 41.5525 190.493 45.572C190.493 49.5647 193.41 52.6671 196.593 52.6671C198.111 52.6671 199.317 51.9115 199.944 51.0488H200.04V52.0738C200.04 54.7989 198.739 56.2555 196.641 56.2555C194.929 56.2555 193.868 54.8792 193.434 53.7195L190.999 54.8524C191.698 56.7408 193.555 59.061 196.641 59.061C199.92 59.061 202.693 56.9024 202.693 51.6421V38.855H200.04V40.0148ZM204.621 52.2353H207.418V31.3012H204.621V52.2353ZM211.541 45.3293C211.469 42.5774 213.446 41.175 214.868 41.175C215.978 41.175 216.918 41.7952 217.231 42.6862L211.541 45.3293ZM220.221 42.9555C219.691 41.3634 218.075 38.4234 214.772 38.4234C211.493 38.4234 208.769 41.3098 208.769 45.5452C208.769 49.5379 211.469 52.6671 215.085 52.6671C218.003 52.6671 219.691 50.6707 220.39 49.5109L218.22 47.892C217.497 49.0792 216.508 49.8616 215.085 49.8616C213.663 49.8616 212.65 49.133 211.999 47.7036L220.51 43.7647L220.221 42.9555ZM152.413 40.6086V43.6299H158.875C158.682 45.3293 158.176 46.5702 157.404 47.4335C156.464 48.486 154.993 49.6458 152.413 49.6458C148.435 49.6458 145.325 46.0579 145.325 41.6067C145.325 37.1556 148.435 33.5673 152.413 33.5673C154.559 33.5673 156.126 34.5117 157.284 35.7256L159.188 33.5947C157.573 31.8678 155.427 30.546 152.413 30.546C146.964 30.546 142.383 35.5099 142.383 41.6067C142.383 47.7036 146.964 52.6671 152.413 52.6671C155.355 52.6671 157.573 51.5885 159.309 49.5647C161.093 47.5683 161.648 44.7629 161.648 42.4971C161.648 41.7952 161.6 41.1482 161.503 40.6086H152.413ZM168.994 49.8616C167.065 49.8616 165.401 48.081 165.401 45.5452C165.401 42.9823 167.065 41.2288 168.994 41.2288C170.922 41.2288 172.586 42.9823 172.586 45.5452C172.586 48.0811 170.922 49.8616 168.994 49.8616ZM168.994 38.4234C165.473 38.4234 162.604 41.4177 162.604 45.5452C162.604 49.6458 165.473 52.6671 168.994 52.6671C172.514 52.6671 175.383 49.6458 175.383 45.5452C175.383 41.4177 172.514 38.4234 168.994 38.4234ZM182.932 49.8616C181.003 49.8616 179.34 48.081 179.34 45.5452C179.34 42.9823 181.003 41.2288 182.932 41.2288C184.861 41.2288 186.524 42.9823 186.524 45.5452C186.524 48.0811 184.861 49.8616 182.932 49.8616H182.932ZM182.932 38.4234C179.412 38.4234 176.543 41.4177 176.543 45.5452C176.543 49.6458 179.412 52.6671 182.932 52.6671C186.452 52.6671 189.321 49.6458 189.321 45.5452C189.321 41.4177 186.452 38.4234 182.932 38.4234H182.932Z" fill="white"/>
<path d="M96.688 14.7455C96.1858 15.2525 95.886 16.0981 95.886 17.2207V16.9669V54.0089V53.7649C95.886 54.8015 96.1431 55.6021 96.5786 56.1177L96.6898 56.2368V56.2373C97.0422 56.5932 97.4942 56.7821 98.0122 56.7815C98.5184 56.7815 99.0878 56.601 99.6888 56.2197L121.412 42.4096L128.874 37.6654C129.822 37.063 130.354 36.2859 130.442 35.4944V35.4911C130.354 34.6978 129.822 33.9213 128.874 33.3188L121.411 28.5752L99.6889 14.765C99.0866 14.3831 98.5167 14.2019 98.0093 14.2019C97.4919 14.2019 97.0405 14.3903 96.6881 14.7455H96.688Z" fill="#00C1FF"/>
<path d="M96.6898 56.2363L96.5786 56.1173C96.1431 55.6018 95.886 54.8011 95.886 53.7645V54.0084V16.9757V17.2202C95.886 16.0977 96.1858 15.2521 96.688 14.7451L115.23 35.4914L96.6898 56.2363Z" fill="url(#paint0_linear_0_464)"/>
<path d="M121.412 42.4097L115.23 35.4919L121.411 28.5754L128.874 33.3189C129.821 33.9214 130.353 34.6978 130.442 35.4913V35.4944C130.353 36.286 129.821 37.0631 128.874 37.6654L121.412 42.4096" fill="url(#paint1_linear_0_464)"/>
<path d="M98.012 56.7812C97.4941 56.7818 97.0421 56.5927 96.6897 56.2369V56.2364L115.23 35.4914L121.412 42.4092L99.6886 56.2194C99.0876 56.6007 98.5182 56.7812 98.012 56.7812Z" fill="url(#paint2_linear_0_464)"/>
<path d="M115.23 35.4922L96.6877 14.7459C97.0402 14.3907 97.4916 14.2023 98.0089 14.2023C98.5164 14.2023 99.0863 14.3834 99.6886 14.7654L121.411 28.5756L115.23 35.4922" fill="url(#paint3_linear_0_464)"/>
<path d="M98.0128 57.0273C97.4949 57.0273 97.0423 56.8383 96.6898 56.4825L96.6892 56.4831C96.6878 56.4815 96.6862 56.48 96.6846 56.4786L96.5882 56.3732C96.5851 56.3699 96.5823 56.3661 96.5787 56.3622L96.6899 56.2378C97.0424 56.5936 97.4943 56.7827 98.0123 56.782C98.5184 56.782 99.0879 56.6015 99.6889 56.2202L121.412 42.4101L121.551 42.5658L121.41 42.6554L99.6888 56.4648C99.1411 56.8122 98.6201 56.9933 98.1496 57.0235C98.104 57.026 98.0584 57.0273 98.0128 57.0273" fill="url(#paint4_linear_0_464)"/>
<path d="M96.5786 56.3613C96.1431 55.8458 95.886 55.0458 95.886 54.0085V53.7645C95.886 54.8012 96.1431 55.6018 96.5786 56.1173L96.6898 56.2364L96.5786 56.3613Z" fill="url(#paint5_linear_0_464)"/>
<path d="M121.551 42.5644L121.412 42.4086L128.874 37.6644C129.821 37.0622 130.353 36.285 130.442 35.4934C130.442 35.7839 130.384 36.0743 130.269 36.357C130.037 36.9267 129.572 37.465 128.874 37.9091L121.551 42.5645" fill="url(#paint6_linear_0_464)"/>
<path d="M130.442 35.4917C130.353 34.6983 129.821 33.9219 128.874 33.3193L121.411 28.5758L121.55 28.42H121.551L128.874 33.0754C129.918 33.74 130.442 34.6157 130.442 35.4917Z" fill="url(#paint7_linear_0_464)"/>
<path d="M95.886 17.2202V16.9643C95.886 16.8721 95.8882 16.7818 95.8925 16.6942V16.6903C95.8925 16.6891 95.8925 16.6878 95.8929 16.6864V16.6766C95.9379 15.7836 96.1858 15.0871 96.5786 14.6221L96.688 14.745C96.1858 15.252 95.886 16.0977 95.886 17.2202Z" fill="url(#paint8_linear_0_464)"/>
<path d="M121.411 28.5752L99.6885 14.7649C99.0863 14.383 98.5164 14.2018 98.0089 14.2018C97.4916 14.2018 97.0402 14.3902 96.6878 14.7454L96.5784 14.6224C96.6125 14.582 96.648 14.5429 96.6848 14.5054C96.686 14.5041 96.6878 14.5027 96.6889 14.5014C97.0386 14.1489 97.4852 13.9605 97.9979 13.9572H98.0089C98.5164 13.9572 99.0863 14.1384 99.6885 14.5205L121.551 28.4189L121.55 28.4194L121.411 28.5752Z" fill="url(#paint9_linear_0_464)"/>
<defs>
<filter id="filter0_dddddd_0_464" x="0.960938" y="0.703704" width="362.039" height="248.277" filterUnits="userSpaceOnUse" color-interpolation-filters="sRGB">
<feFlood flood-opacity="0" result="BackgroundImageFix"/>
<feColorMatrix in="SourceAlpha" type="matrix" values="0 0 0 0 0 0 0 0 0 0 0 0 0 0 0 0 0 0 127 0" result="hardAlpha"/>
<feOffset dy="1.85185"/>
<feGaussianBlur stdDeviation="1.57407"/>
<feColorMatrix type="matrix" values="0 0 0 0 0.219608 0 0 0 0 0.219608 0 0 0 0 0.219608 0 0 0 0.0240741 0"/>
<feBlend mode="normal" in2="BackgroundImageFix" result="effect1_dropShadow_0_464"/>
<feColorMatrix in="SourceAlpha" type="matrix" values="0 0 0 0 0 0 0 0 0 0 0 0 0 0 0 0 0 0 127 0" result="hardAlpha"/>
<feOffset dy="8.14815"/>
<feGaussianBlur stdDeviation="3.25926"/>
<feColorMatrix type="matrix" values="0 0 0 0 0.219608 0 0 0 0 0.219608 0 0 0 0 0.219608 0 0 0 0.0392593 0"/>
<feBlend mode="normal" in2="effect1_dropShadow_0_464" result="effect2_dropShadow_0_464"/>
<feColorMatrix in="SourceAlpha" type="matrix" values="0 0 0 0 0 0 0 0 0 0 0 0 0 0 0 0 0 0 127 0" result="hardAlpha"/>
<feOffset dy="20"/>
<feGaussianBlur stdDeviation="6.5"/>
<feColorMatrix type="matrix" values="0 0 0 0 0.219608 0 0 0 0 0.219608 0 0 0 0 0.219608 0 0 0 0.05 0"/>
<feBlend mode="normal" in2="effect2_dropShadow_0_464" result="effect3_dropShadow_0_464"/>
<feColorMatrix in="SourceAlpha" type="matrix" values="0 0 0 0 0 0 0 0 0 0 0 0 0 0 0 0 0 0 127 0" result="hardAlpha"/>
<feOffset dy="38.5185"/>
<feGaussianBlur stdDeviation="12.7407"/>
<feColorMatrix type="matrix" values="0 0 0 0 0.219608 0 0 0 0 0.219608 0 0 0 0 0.219608 0 0 0 0.0607407 0"/>
<feBlend mode="normal" in2="effect3_dropShadow_0_464" result="effect4_dropShadow_0_464"/>
<feColorMatrix in="SourceAlpha" type="matrix" values="0 0 0 0 0 0 0 0 0 0 0 0 0 0 0 0 0 0 127 0" result="hardAlpha"/>
<feOffset dy="64.8148"/>
<feGaussianBlur stdDeviation="23.4259"/>
<feColorMatrix type="matrix" values="0 0 0 0 0.219608 0 0 0 0 0.219608 0 0 0 0 0.219608 0 0 0 0.0759259 0"/>
<feBlend mode="normal" in2="effect4_dropShadow_0_464" result="effect5_dropShadow_0_464"/>
<feColorMatrix in="SourceAlpha" type="matrix" values="0 0 0 0 0 0 0 0 0 0 0 0 0 0 0 0 0 0 127 0" result="hardAlpha"/>
<feOffset dy="100"/>
<feGaussianBlur stdDeviation="40"/>
<feColorMatrix type="matrix" values="0 0 0 0 0.219608 0 0 0 0 0.219608 0 0 0 0 0.219608 0 0 0 0.1 0"/>
<feBlend mode="normal" in2="effect5_dropShadow_0_464" result="effect6_dropShadow_0_464"/>
<feBlend mode="normal" in="SourceGraphic" in2="effect6_dropShadow_0_464" result="shape"/>
</filter>
<linearGradient id="paint0_linear_0_464" x1="107.736" y1="16.5843" x2="89.9912" y2="32.4946" gradientUnits="userSpaceOnUse">
<stop stop-color="#00A0FF"/>
<stop offset="0.00657" stop-color="#00A1FF"/>
<stop offset="0.2601" stop-color="#00BEFF"/>
<stop offset="0.5122" stop-color="#00D2FF"/>
<stop offset="0.7604" stop-color="#00DFFF"/>
<stop offset="1" stop-color="#00E3FF"/>
</linearGradient>
<linearGradient id="paint1_linear_0_464" x1="131.597" y1="35.3724" x2="95.384" y2="35.3724" gradientUnits="userSpaceOnUse">
<stop stop-color="#FFE000"/>
<stop offset="0.4087" stop-color="#FFBD00"/>
<stop offset="0.7754" stop-color="#FFA500"/>
<stop offset="1" stop-color="#FF9C00"/>
</linearGradient>
<linearGradient id="paint2_linear_0_464" x1="118.13" y1="42.0685" x2="88.0848" y2="68.8113" gradientUnits="userSpaceOnUse">
<stop stop-color="#FF3A44"/>
<stop offset="1" stop-color="#C31162"/>
</linearGradient>
<linearGradient id="paint3_linear_0_464" x1="91.9088" y1="11.6701" x2="105.302" y2="23.6091" gradientUnits="userSpaceOnUse">
<stop stop-color="#32A071"/>
<stop offset="0.0685" stop-color="#2DA771"/>
<stop offset="0.4762" stop-color="#15CF74"/>
<stop offset="0.8009" stop-color="#06E775"/>
<stop offset="1" stop-color="#00F076"/>
</linearGradient>
<linearGradient id="paint4_linear_0_464" x1="118.117" y1="46.8679" x2="94.0356" y2="68.4601" gradientUnits="userSpaceOnUse">
<stop stop-color="#CC2E36"/>
<stop offset="1" stop-color="#9C0E4E"/>
</linearGradient>
<linearGradient id="paint5_linear_0_464" x1="98.3561" y1="16.5843" x2="82.7234" y2="30.6013" gradientUnits="userSpaceOnUse">
<stop stop-color="#008DE0"/>
<stop offset="0.00657" stop-color="#008DE0"/>
<stop offset="0.2601" stop-color="#00A7E0"/>
<stop offset="0.5122" stop-color="#00B8E0"/>
<stop offset="0.7604" stop-color="#00C4E0"/>
<stop offset="1" stop-color="#00C7E0"/>
</linearGradient>
<linearGradient id="paint6_linear_0_464" x1="131.597" y1="35.4919" x2="95.384" y2="35.4919" gradientUnits="userSpaceOnUse">
<stop stop-color="#E0C500"/>
<stop offset="0.4087" stop-color="#E0A600"/>
<stop offset="0.7754" stop-color="#E09100"/>
<stop offset="1" stop-color="#E08900"/>
</linearGradient>
<linearGradient id="paint7_linear_0_464" x1="131.597" y1="35.4933" x2="95.3841" y2="35.4933" gradientUnits="userSpaceOnUse">
<stop stop-color="#FFE840"/>
<stop offset="0.4087" stop-color="#FFCE40"/>
<stop offset="0.7754" stop-color="#FFBC40"/>
<stop offset="1" stop-color="#FFB540"/>
</linearGradient>
<linearGradient id="paint8_linear_0_464" x1="98.3408" y1="16.6127" x2="83.3569" y2="29.4658" gradientUnits="userSpaceOnUse">
<stop stop-color="#40B8FF"/>
<stop offset="0.00657" stop-color="#40B9FF"/>
<stop offset="0.2601" stop-color="#40CEFF"/>
<stop offset="0.5122" stop-color="#40DDFF"/>
<stop offset="0.7604" stop-color="#40E7FF"/>
<stop offset="1" stop-color="#40EAFF"/>
</linearGradient>
<linearGradient id="paint9_linear_0_464" x1="91.8818" y1="16.0571" x2="102.635" y2="25.699" gradientUnits="userSpaceOnUse">
<stop stop-color="#65B895"/>
<stop offset="0.0685" stop-color="#62BD95"/>
<stop offset="0.4762" stop-color="#50DB97"/>
<stop offset="0.8009" stop-color="#44ED98"/>
<stop offset="1" stop-color="#40F498"/>
</linearGradient>
</defs>
</svg>
