<svg width="361" height="208" viewBox="0 0 361 208" fill="none" xmlns="http://www.w3.org/2000/svg">
<g filter="url(#filter0_d_0_644)">
<rect x="50" y="30" width="261" height="108" rx="10" fill="white"/>
</g>
<path d="M236.524 87.8934H223.055L224.455 86.8405C225.061 86.0452 225.571 85.1818 225.975 84.2679L229.621 76.4408C229.869 75.9144 229.919 75.5469 229.77 75.3681C229.621 75.1893 229.164 75.0999 228.389 75.0999H224.356C223.843 75.0777 223.33 75.1553 222.846 75.3284C222.414 75.5781 222.084 75.9719 221.913 76.4408L218.267 84.2679C217.919 84.9355 217.652 85.6425 217.473 86.3737C217.446 86.9003 217.559 87.4248 217.8 87.8934H204.361L205.355 87.3471C206.162 86.4453 206.802 85.4057 207.242 84.2779L211.215 75.6661C211.545 75.0363 211.798 74.3693 211.97 73.6795C212.001 73.1173 211.899 72.5557 211.672 72.0406H223.055L222.608 73.6994C223.109 73.2524 223.651 72.8534 224.227 72.5074C224.904 72.1908 225.645 72.0312 226.392 72.0406H235.332C240.206 72.0406 241.742 73.9742 239.941 77.8414L236.961 84.3077C236.624 84.9685 236.36 85.6648 236.176 86.3836C236.138 86.9198 236.259 87.4554 236.524 87.9232" fill="#CF4044"/>
<path d="M237.408 88.4496H221.386L223.055 87.1981L224.048 86.4432C224.608 85.698 225.081 84.8916 225.459 84.0394L229.104 76.2024C229.182 76.0521 229.239 75.8916 229.273 75.7256C228.978 75.6688 228.679 75.6455 228.379 75.6561H224.346C223.912 75.634 223.477 75.6947 223.065 75.8349C222.936 75.8945 222.687 76.0733 222.409 76.6792L218.764 84.5063C218.434 85.1358 218.18 85.8028 218.009 86.4928C217.994 86.9154 218.093 87.3341 218.297 87.7046L218.655 88.4894H204.351L204.093 87.4961L204.47 87.2974L205.066 86.9796C205.79 86.1289 206.371 85.166 206.785 84.1288L210.758 75.517C211.075 74.9311 211.315 74.3068 211.473 73.6596C211.492 73.1912 211.4 72.725 211.205 72.2988L210.927 71.5439H223.84L223.631 72.3187L224.018 72.0803C224.777 71.7164 225.61 71.5328 226.452 71.5439H235.391C238.222 71.5439 239.99 72.1697 240.805 73.451C241.619 74.7323 241.421 76.1527 240.497 78.1393L237.517 84.6056C237.195 85.2194 236.948 85.8697 236.782 86.5425C236.767 86.9644 236.874 87.3817 237.09 87.7444L237.408 88.4496ZM224.714 87.3371H235.719C235.613 86.9934 235.583 86.6309 235.63 86.2743C235.813 85.5018 236.09 84.7545 236.454 84.0494L239.434 77.5731C240.189 75.964 240.318 74.7522 239.812 73.9576C239.305 73.1629 237.716 72.567 235.332 72.567H226.392C225.729 72.5536 225.073 72.6965 224.475 72.9842C223.937 73.3055 223.432 73.6781 222.965 74.0966L221.595 75.2786L222.33 72.567H212.397C212.501 72.9484 212.532 73.3462 212.486 73.7391C212.313 74.4913 212.046 75.2188 211.692 75.9044L207.719 84.5162C207.286 85.516 206.739 86.4626 206.09 87.3371H217.016C216.91 87.0001 216.88 86.6442 216.926 86.2942C217.105 85.5094 217.385 84.7513 217.761 84.0394L221.416 76.2024C221.636 75.6087 222.068 75.1171 222.628 74.8217C223.179 74.6123 223.767 74.5177 224.356 74.5436H228.389C229.382 74.5436 229.928 74.6827 230.197 75.0105C230.604 75.5071 230.346 76.2024 230.117 76.6792L226.472 84.5063C226.052 85.4609 225.518 86.3613 224.882 87.1882L224.793 87.2775L224.714 87.3371Z" fill="#231F20"/>
<path d="M253.072 78.5864L254.065 76.421C254.237 75.9687 254.56 75.5896 254.979 75.3483C255.393 75.17 255.84 75.0852 256.29 75.0999H260.82C261.892 75.0999 262.23 75.537 261.813 76.421L260.82 78.5864H253.072ZM272.372 76.8084C273.206 75.0105 273.305 73.7689 272.68 73.0637C272.054 72.3585 270.574 72.0108 268.259 72.0108H251.463C249.59 71.9021 247.721 72.2712 246.03 73.0836C244.637 73.9753 243.554 75.2765 242.931 76.8084L239.951 83.1058C239.116 84.8937 239.007 86.1453 239.623 86.8406C240.239 87.5359 241.699 87.8935 244.013 87.8935H266.084L268.647 84.0991C267.888 84.3855 267.103 84.5952 266.303 84.7249C265.756 84.7845 264.783 84.8043 263.323 84.8043H252.675C250.986 84.8043 250.38 84.268 250.887 83.2052L251.572 81.7252H270.037L272.372 76.8084Z" fill="#CF4044"/>
<path d="M266.382 88.4497H244.053C241.55 88.4497 239.98 88.0425 239.245 87.2081C238.51 86.3738 238.54 84.8938 239.494 82.8675L242.474 76.57C243.145 74.933 244.307 73.5447 245.801 72.5969C247.576 71.735 249.542 71.3417 251.513 71.4546H268.309C270.812 71.4546 272.391 71.8619 273.146 72.6863C273.901 73.5107 273.871 75.0106 272.928 77.0369L270.484 82.2814H251.969L251.423 83.4336C251.326 83.5871 251.294 83.7729 251.334 83.9501C251.334 83.9501 251.562 84.2481 252.714 84.2481H263.362C264.753 84.2481 265.726 84.2481 266.243 84.1687C267.003 84.0477 267.749 83.848 268.468 83.5727L270.027 83.0462L266.382 88.4497ZM251.483 72.5571C249.708 72.4545 247.937 72.7959 246.328 73.5504C245.035 74.3854 244.032 75.5998 243.457 77.0269L240.477 83.3244C239.762 84.8739 239.613 85.9566 240.06 86.4632C240.507 86.9697 241.371 87.3273 244.033 87.3273H265.776L267.286 85.0825C266.975 85.1611 266.66 85.2208 266.342 85.2613C265.776 85.3209 264.793 85.3507 263.362 85.3507H252.675C251.463 85.3507 250.688 85.0825 250.36 84.5362C250.221 84.2964 250.147 84.0239 250.147 83.7465C250.147 83.4691 250.221 83.1966 250.36 82.9569L251.195 81.159H269.66L271.805 76.5601C272.52 75.0205 272.66 73.9378 272.203 73.4213C271.746 72.9048 270.872 72.5571 268.23 72.5571H251.483ZM261.207 79.1327H252.267L253.648 76.1529C253.869 75.5847 254.285 75.1132 254.82 74.8218C255.313 74.6017 255.85 74.4964 256.39 74.5139H260.909C261.198 74.4737 261.493 74.5093 261.765 74.6172C262.037 74.7252 262.276 74.9018 262.459 75.1298C262.588 75.3566 262.657 75.6134 262.657 75.8747C262.657 76.1361 262.588 76.3929 262.459 76.6197L261.207 79.1327ZM253.946 78.0401H260.482L261.346 76.1926C261.424 76.064 261.462 75.9155 261.455 75.7655C261.263 75.6759 261.05 75.6415 260.839 75.6661H256.32C255.949 75.6484 255.578 75.7164 255.237 75.8648C254.936 76.0464 254.708 76.3274 254.592 76.6594L253.946 78.0401Z" fill="#231F20"/>
<path d="M207.123 77.9506C208.454 74.8118 209.268 72.0703 202.613 71.9908H169.735L171.335 68.5541H160.259L158.67 71.961H135.546C135.546 71.961 129.259 71.6929 126.825 76.8182L123.846 83.2746C122.554 86.1452 124.173 87.8536 128.007 87.8536H145.678L148.211 84.0096C146.759 84.4905 145.241 84.7386 143.711 84.7446H136.659C136.659 84.7446 133.917 84.9532 134.901 83.0461L137.881 76.6692C137.881 76.6692 138.407 75.07 141.01 75.0402H157.27L153.296 83.6917C152.661 85.4598 152.482 87.8635 158.025 87.8536H171.752L174.165 84.1586C173.011 84.554 171.8 84.7586 170.58 84.7645H165.792C164.451 84.7645 163.805 84.7645 164.322 83.7116L168.365 75.0601H195.839C198.024 75.0601 197.041 77.1162 194.846 77.1261H184.188C181.814 77.1261 178.526 77.3943 176.47 80.99C176.47 80.99 175.308 83.3838 175.129 83.8507C173.987 86.8305 175.328 87.8238 179.35 87.8238H188.171C190.644 87.8238 192.035 87.0689 192.829 86.1054L192.581 87.8238H203.596C203.298 87.3967 202.911 87.0391 203.477 85.7478L207.123 77.881V77.9506ZM193.952 82.4899C193.687 83.1878 193.282 83.8236 192.76 84.3572C192.291 84.6482 191.74 84.7805 191.19 84.7347H188.002C187.409 84.805 186.809 84.7015 186.274 84.4367C186.045 84.2381 186.045 83.8904 186.274 83.3739L187.148 81.5065C187.555 80.6225 188.548 80.1854 190.128 80.1854H195.064L193.952 82.4899Z" fill="#CF4044"/>
<path d="M157.915 88.4596C155.263 88.4596 153.604 87.9332 152.83 86.8306C152.553 86.3344 152.397 85.7799 152.374 85.2121C152.352 84.6443 152.464 84.0792 152.7 83.5627V83.513L156.326 75.6562H140.97C138.844 75.6562 138.377 76.868 138.357 76.9176V76.9673L135.378 83.3442C135.229 83.6322 135.189 83.8508 135.248 83.9501C135.308 84.0494 136.142 84.2779 136.589 84.2481H143.632C145.096 84.2448 146.551 84.0101 147.943 83.5528L149.542 82.9667L145.906 88.4695H127.978C125.643 88.4695 124.004 87.8537 123.269 86.6916C122.954 86.1468 122.787 85.5283 122.787 84.8987C122.787 84.269 122.954 83.6506 123.269 83.1058L126.249 76.6395C128.822 71.246 135.189 71.4546 135.497 71.4645H158.243L159.842 68.0575H172.139L170.54 71.5042H202.613C205.593 71.5042 207.391 72.0903 208.166 73.2623C209.04 74.6033 208.414 76.3713 207.629 78.2288L204.004 86.0459C203.616 86.9399 203.765 87.1485 204.004 87.4663L204.689 88.4596H191.975L192.104 87.5458C190.91 88.1904 189.566 88.5057 188.21 88.4596H179.38C176.768 88.4596 175.288 88.0126 174.612 87.0193C174.241 86.428 174.117 85.7149 174.265 85.0328L172.01 88.4894H157.915V88.4596ZM153.733 83.9998C153.553 84.3427 153.458 84.7245 153.458 85.1122C153.458 85.4999 153.553 85.8818 153.733 86.2247C154.27 86.9895 155.72 87.3968 157.915 87.3968H171.335L172.795 85.1818C172.03 85.3372 171.251 85.417 170.47 85.4201H165.504C164.57 85.4201 163.944 85.4202 163.627 84.9036C163.529 84.6942 163.485 84.4637 163.499 84.2331C163.513 84.0024 163.584 83.7788 163.706 83.5826L167.898 74.643H195.71C197.031 74.643 197.488 75.2986 197.488 75.9045C197.488 76.8282 196.355 77.8116 194.677 77.8215H184.188C181.496 77.8215 178.754 78.2486 176.957 81.3973C176.649 82.033 175.794 83.8309 175.645 84.1885C175.228 85.2712 175.179 86.0161 175.496 86.483C175.933 87.1286 177.195 87.4762 179.35 87.4762H188.171C190.157 87.4762 191.578 86.9597 192.402 85.9565L193.654 84.4467L193.227 87.4762H202.683C202.582 86.8777 202.683 86.2626 202.971 85.7281L206.606 77.8712C207.272 76.3117 207.808 74.8913 207.232 73.9676C206.656 73.0438 205.146 72.7359 202.603 72.716H168.831L170.431 69.2792H160.587L158.998 72.6862H135.517C135.437 72.6862 129.557 72.4975 127.292 77.2255L124.312 83.6819C124.081 84.0562 123.948 84.4833 123.927 84.923C123.907 85.3626 123.998 85.8004 124.193 86.1949C124.72 87.0193 126.061 87.4663 127.968 87.4663H145.4L146.949 85.1122C145.892 85.3407 144.813 85.4605 143.731 85.4698H136.699C136.361 85.4698 134.931 85.5393 134.364 84.6851C134.212 84.4239 134.136 84.1247 134.147 83.8223C134.157 83.5198 134.253 83.2266 134.424 82.9767L137.404 76.6395C137.523 76.3415 138.278 74.6529 141.049 74.6529H158.183L153.733 83.9998ZM164.66 84.258C164.99 84.2757 165.322 84.2757 165.653 84.258H170.54C171.692 84.2531 172.836 84.0619 173.927 83.6918L174.781 83.374C175.129 82.5992 175.904 81 176.003 80.7914C178.109 77.1064 181.337 76.6196 184.217 76.6196H194.766C195.055 76.6366 195.344 76.5943 195.615 76.4952C195.887 76.3961 196.136 76.2424 196.345 76.0435C196.455 75.9144 196.475 75.825 196.465 75.8151C196.455 75.8051 196.276 75.6661 195.799 75.6562H168.682L164.749 83.9998L164.66 84.258ZM191.19 85.4003H188.002C187.275 85.4902 186.539 85.3402 185.906 84.9732C185.608 84.7149 185.34 84.1984 185.777 83.2548L186.651 81.3775C187.158 80.2948 188.32 79.7386 190.127 79.7386H195.889L194.458 82.8277C194.16 83.613 193.696 84.3246 193.097 84.9136C192.526 85.2635 191.858 85.4202 191.19 85.3605V85.4003ZM186.661 84.1388C187.094 84.2743 187.549 84.3249 188.002 84.2878H191.19C191.619 84.3345 192.051 84.2404 192.422 84.0196C192.863 83.5402 193.201 82.9757 193.415 82.3608L194.111 80.851H190.098C188.767 80.851 187.932 81.1888 187.634 81.8443L186.75 83.7216C186.696 83.8404 186.666 83.9686 186.661 84.0991V84.1388Z" fill="#231F20"/>
<path d="M126.686 67.7594C125.892 66.786 124.2 66.2993 121.611 66.2993H104.526C102.284 66.2104 100.061 66.7396 98.0995 67.829C96.2864 68.9775 94.8659 70.6509 94.0271 72.6265L89.8652 81.5661C88.7991 83.8639 88.6766 85.5194 89.4977 86.5325C90.2824 87.4563 91.9312 87.9132 94.4641 87.9132H111.539C113.807 88.0049 116.058 87.4833 118.055 86.4034C119.87 85.2482 121.29 83.5679 122.127 81.586L126.299 72.6464C127.352 70.3817 127.481 68.7593 126.686 67.7793V67.7594ZM112.84 80.8013C105.956 85.1519 98.4075 87.0192 95.954 84.9731C93.5006 82.9269 97.1062 77.7618 104.01 73.4212C110.913 69.0805 118.432 67.2032 120.895 69.2394C123.359 71.2757 119.723 76.4507 112.84 80.8013Z" fill="#CF4044"/>
<path d="M111.539 88.4496H94.4641C91.7325 88.4496 89.9744 87.9331 89.0805 86.8703C88.1865 85.8075 88.1965 83.8209 89.3586 81.3278L93.5304 72.3882C94.4159 70.3156 95.9084 68.5599 97.8115 67.3523C99.8604 66.2121 102.183 65.6555 104.526 65.7431H121.611C124.402 65.7431 126.2 66.2894 127.123 67.4118C128.117 68.5839 127.968 70.3917 126.796 72.865L122.634 81.8046C121.746 83.8895 120.246 85.656 118.333 86.8703C116.251 87.9978 113.904 88.5433 111.539 88.4496ZM104.526 66.8556C102.386 66.7716 100.264 67.2729 98.3876 68.3058C96.6761 69.4018 95.3334 70.9867 94.5336 72.8551L90.3717 81.7946C89.3785 83.8706 89.2593 85.3407 89.9347 86.1551C90.6101 86.9696 92.11 87.3372 94.4641 87.3372H111.539C113.706 87.4301 115.857 86.9359 117.767 85.9068C119.485 84.803 120.831 83.2075 121.63 81.3278L125.792 72.3882C126.786 70.352 126.905 68.9117 126.259 68.1071C125.614 67.3026 124.014 66.8556 121.611 66.8556H104.526ZM99.0431 86.3439C97.8207 86.416 96.6107 86.0652 95.6163 85.3506C95.2702 85.0722 94.9983 84.7124 94.825 84.3034C94.6517 83.8943 94.5823 83.4488 94.623 83.0064C94.8117 80.2153 98.3677 76.2521 103.692 72.8948C110.863 68.3654 118.591 66.5477 121.203 68.7726C121.549 69.0495 121.82 69.4076 121.993 69.8149C122.167 70.2222 122.237 70.666 122.197 71.1069C122.018 73.8881 118.462 77.8612 113.138 81.2185C108.032 84.4964 102.688 86.3439 99.0431 86.3439ZM117.846 68.9812C114.677 68.9812 109.562 70.5804 104.327 73.8881C98.5962 77.4937 95.9043 81.1291 95.7653 83.1356C95.7343 83.3992 95.7699 83.6665 95.8688 83.9129C95.9677 84.1592 96.1268 84.3769 96.3315 84.546C98.318 86.2048 105.271 84.9135 112.542 80.3345C118.263 76.7189 120.955 73.0835 121.094 71.0771C121.125 70.8134 121.089 70.5462 120.991 70.2998C120.892 70.0534 120.733 69.8357 120.528 69.6666C119.736 69.1439 118.792 68.9026 117.846 68.9812Z" fill="#231F20"/>
<path d="M157.15 87.7345C154.498 87.7345 152.84 87.1981 152.065 86.0956C151.788 85.5993 151.632 85.0448 151.61 84.4771C151.587 83.9093 151.699 83.3442 151.936 82.8277L155.571 74.9608H140.205C138.079 74.9608 137.612 76.1726 137.593 76.2223V76.272L134.613 82.6489C134.464 82.9468 134.424 83.1654 134.484 83.2647C134.543 83.364 135.368 83.5826 135.825 83.5528H142.877C144.342 83.5423 145.796 83.3044 147.188 82.8475L148.777 82.2615L145.152 87.7643H127.213C124.879 87.7643 123.24 87.1484 122.505 85.9863C122.19 85.443 122.024 84.8263 122.024 84.1984C122.024 83.5705 122.19 82.9537 122.505 82.4105L125.484 75.9343C128.057 70.5407 134.424 70.7493 134.732 70.7592H157.478L159.067 67.3423H171.374L169.775 70.789H201.779C204.759 70.789 206.556 71.3751 207.331 72.5471C208.205 73.8881 207.58 75.6561 206.795 77.5136L203.159 85.3804C202.762 86.2644 202.921 86.473 203.159 86.7909L203.378 87.0988L203.289 86.7313L203.626 86.5425L204.262 86.2148C204.988 85.3697 205.569 84.4097 205.98 83.374L209.953 74.7622C210.269 74.1743 210.503 73.546 210.649 72.8948C210.679 72.4256 210.586 71.9567 210.381 71.534L210.112 70.789H223.025L222.817 71.5539C222.94 71.4689 223.07 71.3926 223.204 71.3254C223.961 70.957 224.795 70.7732 225.637 70.789H234.527C237.358 70.789 239.126 71.4049 239.941 72.6862C240.666 73.8186 240.557 75.3979 239.633 77.3745L236.653 83.8408C236.334 84.4561 236.088 85.106 235.918 85.7777C235.908 86.1978 236.011 86.6129 236.216 86.9796L236.603 87.7742H220.611L222.201 86.5922C222.558 86.324 222.926 86.0558 223.293 85.7678C223.853 85.0226 224.326 84.2162 224.704 83.364L228.349 75.527C228.427 75.3767 228.484 75.2162 228.518 75.0502C228.224 74.9934 227.924 74.9701 227.624 74.9807H223.591C223.156 74.9547 222.72 75.019 222.31 75.1694C222.181 75.1694 221.933 75.3979 221.654 76.0038L218.009 83.8309C217.675 84.4587 217.421 85.1261 217.254 85.8174C217.239 86.238 217.343 86.6544 217.552 87.0193L217.9 87.804H191.18L191.31 86.8902C190.114 87.5402 188.766 87.8558 187.406 87.804H178.586C175.963 87.804 174.493 87.357 173.818 86.3638C173.447 85.7724 173.322 85.0594 173.47 84.3772L171.225 87.7146H157.2L157.15 87.7345ZM152.969 83.225C152.788 83.5696 152.693 83.9531 152.693 84.3424C152.693 84.7317 152.788 85.1152 152.969 85.4599C153.505 86.2148 154.955 86.622 157.15 86.622H170.57L172.03 84.407C171.265 84.5624 170.486 84.6422 169.706 84.6454H164.868C163.875 84.6454 163.229 84.6454 162.882 84.1289C162.781 83.9201 162.736 83.6892 162.75 83.458C162.764 83.2268 162.837 83.003 162.961 82.8078L167.153 73.8682H194.965C196.276 73.8682 196.743 74.5238 196.743 75.1297C196.743 76.0535 195.61 77.0368 193.932 77.0467H183.423C180.731 77.0467 177.99 77.4738 176.192 80.6325C175.884 81.2583 175.02 83.0561 174.881 83.4236C174.463 84.4964 174.414 85.2413 174.732 85.7082C175.169 86.3538 176.43 86.7015 178.586 86.7015H187.406C189.392 86.7015 190.803 86.185 191.637 85.1817L192.889 83.6719L192.462 86.7015H201.918C201.811 86.1062 201.913 85.4923 202.206 84.9632L205.841 77.0964C206.507 75.5469 207.043 74.1165 206.467 73.2027C205.891 72.2889 204.381 71.9611 201.838 71.9412H168.067L169.666 68.5045H159.822L158.233 71.9114H134.752C134.662 71.9114 128.792 71.7227 126.527 76.4508L123.548 82.9071C123.316 83.2833 123.184 83.712 123.163 84.1532C123.142 84.5945 123.233 85.0338 123.428 85.4301C123.955 86.2446 125.296 86.6915 127.203 86.6915H144.575L146.125 84.3374C145.067 84.5659 143.989 84.6857 142.907 84.695H135.874C135.537 84.695 134.106 84.7546 133.54 83.9004C133.387 83.6392 133.312 83.34 133.322 83.0375C133.333 82.7351 133.429 82.4419 133.6 82.1919L136.579 75.8548C136.689 75.5568 137.454 73.8682 140.225 73.8682H157.319L152.969 83.225ZM223.949 86.6021H234.954C234.848 86.2585 234.818 85.8959 234.865 85.5393C235.048 84.7668 235.325 84.0195 235.689 83.3144L238.669 76.8381C239.424 75.229 239.543 74.0172 239.047 73.2325C238.55 72.4478 236.951 71.832 234.567 71.832H225.677C225.011 71.8196 224.351 71.9624 223.75 72.2492C223.216 72.5711 222.714 72.9436 222.25 73.3616L220.89 74.5436L221.625 71.832H211.692C211.796 72.2134 211.826 72.6112 211.781 73.0041C211.61 73.7568 211.343 74.4844 210.986 75.1694L207.013 83.7812C206.581 84.781 206.034 85.7276 205.384 86.6021H216.231C216.128 86.2648 216.094 85.91 216.132 85.5592C216.321 84.7763 216.605 84.0192 216.976 83.3044L220.631 75.4674C220.86 74.8616 221.306 74.3624 221.883 74.0669C222.434 73.8575 223.022 73.7628 223.611 73.7888H227.644C228.637 73.7888 229.183 73.9278 229.452 74.2655C229.899 74.8118 229.501 75.6462 229.372 75.9243L225.727 83.7514C225.307 84.706 224.773 85.6065 224.138 86.4333L224.048 86.5227L223.949 86.6021ZM163.895 83.4832C164.226 83.5009 164.557 83.5009 164.888 83.4832H169.765C170.917 83.4783 172.061 83.2871 173.152 82.9171L174.006 82.5992C174.354 81.8244 175.129 80.2253 175.228 80.0167C177.334 76.3316 180.562 75.8448 183.443 75.8448H193.972C194.26 75.8618 194.549 75.8195 194.821 75.7204C195.092 75.6213 195.341 75.4676 195.551 75.2688C195.613 75.2063 195.654 75.1267 195.67 75.0403C195.67 75.0403 195.481 74.8913 195.005 74.8814H167.888L163.984 83.215L163.895 83.4832ZM265.587 87.7146H243.288C240.785 87.7146 239.216 87.3074 238.481 86.4829C237.746 85.6585 237.775 84.1587 238.729 82.1324L241.659 75.8349C242.33 74.1979 243.493 72.8096 244.987 71.8618C246.763 71.0037 248.729 70.6139 250.698 70.7294H267.495C269.998 70.7294 271.577 71.1268 272.332 71.9611C273.087 72.7955 273.057 74.2755 272.113 76.3018L269.68 81.5463H251.205L250.658 82.6985C250.561 82.8521 250.529 83.0378 250.569 83.215C250.569 83.215 250.797 83.523 251.95 83.523H262.608C263.998 83.523 264.962 83.5229 265.488 83.4336C266.244 83.312 266.986 83.1157 267.703 82.8475L269.273 82.3111L265.587 87.7146ZM250.688 71.8221C248.914 71.7194 247.142 72.0608 245.533 72.8153C244.24 73.6504 243.238 74.8647 242.662 76.2918L239.683 82.5992C238.957 84.1388 238.818 85.2215 239.265 85.738C239.712 86.2545 240.576 86.5922 243.238 86.5922H264.972L266.491 84.3474C266.165 84.4332 265.833 84.493 265.498 84.5262C264.507 84.6054 263.512 84.6353 262.518 84.6156H251.95C250.738 84.6156 249.963 84.3573 249.625 83.8011C249.489 83.5603 249.417 83.2883 249.417 83.0114C249.417 82.7346 249.489 82.4625 249.625 82.2218L250.46 80.4239H268.925L271.07 75.825C271.786 74.2854 271.925 73.2027 271.468 72.6862C271.011 72.1697 270.127 71.8221 267.495 71.8221H250.688ZM110.764 87.7146H93.749C91.0174 87.7146 89.2593 87.1981 88.3554 86.1353C87.4515 85.0725 87.4813 83.0859 88.6435 80.5928L92.8153 71.6532C93.704 69.5826 95.1958 67.8277 97.0963 66.6172C99.147 65.4813 101.468 64.925 103.811 65.0081H120.895C123.687 65.0081 125.484 65.5544 126.398 66.6768C127.392 67.8489 127.243 69.6567 126.07 72.13L121.909 81.0695C121.021 83.1545 119.521 84.921 117.608 86.1353C115.514 87.2697 113.153 87.8155 110.774 87.7146H110.764ZM103.761 66.1206C101.621 66.0355 99.4985 66.537 97.6228 67.5708C95.8991 68.6626 94.5481 70.2526 93.749 72.13L89.5871 81.0695C88.5938 83.1455 88.4746 84.6156 89.1401 85.4301C89.8056 86.2446 91.3254 86.6121 93.6794 86.6121H110.774C112.941 86.705 115.093 86.2108 117.002 85.1817C118.72 84.078 120.067 82.4824 120.866 80.6027L125.028 71.6631C126.021 69.6766 126.14 68.1866 125.494 67.392C124.849 66.5974 123.25 66.1206 120.846 66.1206H103.761ZM98.2784 85.6089C97.0554 85.6859 95.8437 85.3347 94.8515 84.6156C94.5033 84.3389 94.23 83.9794 94.0565 83.5699C93.883 83.1604 93.8148 82.714 93.8582 82.2714C94.047 79.4902 97.6029 75.5171 102.927 72.1598C110.098 67.6304 117.826 65.8127 120.439 68.0376C120.783 68.3151 121.054 68.6733 121.227 69.0804C121.401 69.4875 121.471 69.9311 121.432 70.3719C121.253 73.163 117.697 77.1262 112.373 80.4835C107.268 83.7614 101.904 85.6089 98.2784 85.6089ZM117.081 68.2462C113.903 68.2462 108.797 69.8454 103.553 73.1531C97.8314 76.7587 95.1396 80.3941 95.0005 82.4005C94.9693 82.6633 95.0038 82.9297 95.1008 83.1759C95.1979 83.422 95.3546 83.6403 95.5567 83.811C97.5433 85.4797 104.496 84.1785 111.777 79.5995C117.498 75.9839 120.19 72.3485 120.319 70.352C120.354 70.089 120.322 69.8214 120.224 69.5746C120.127 69.3278 119.968 69.1099 119.763 68.9415C118.974 68.411 118.028 68.1657 117.081 68.2462ZM190.425 84.6255H187.237C186.51 84.7169 185.774 84.5668 185.141 84.1984C184.843 83.9401 184.575 83.4236 185.012 82.48L185.886 80.6027C186.393 79.52 187.555 78.9638 189.363 78.9638H195.124L193.693 82.0628C193.393 82.8442 192.929 83.5521 192.333 84.1388C191.766 84.5013 191.097 84.6719 190.425 84.6255ZM185.896 83.374C186.33 83.5059 186.785 83.5565 187.237 83.523H190.425C190.854 83.5641 191.285 83.4703 191.657 83.2548C192.096 82.7704 192.434 82.203 192.65 81.5861L193.346 80.0763H189.323C187.992 80.0763 187.158 80.414 186.86 81.0695L185.976 82.9469C185.921 83.0825 185.894 83.2277 185.896 83.374ZM260.393 78.4075H251.403L252.784 75.4277C253.005 74.8596 253.42 74.3881 253.956 74.0967C254.446 73.8773 254.979 73.7721 255.516 73.7888H260.045C260.335 73.7476 260.632 73.7838 260.904 73.8937C261.176 74.0036 261.414 74.1832 261.594 74.4145C261.723 74.6398 261.791 74.8949 261.791 75.1545C261.791 75.4141 261.723 75.6692 261.594 75.8945L260.393 78.4075ZM253.151 77.2951H259.677L260.542 75.4475C260.691 75.1396 260.661 75.0304 260.661 75.0204C260.468 74.9332 260.255 74.899 260.045 74.9211H255.516C255.148 74.9083 254.782 74.9761 254.443 75.1198C254.141 75.3033 253.91 75.5833 253.787 75.9144L253.151 77.2951Z" fill="white"/>
<path d="M273.693 98.9487C273.677 99.7445 273.35 100.502 272.782 101.06C272.213 101.617 271.449 101.929 270.653 101.929L88.8819 101.978L89.3686 102.455V95.0253C89.3841 94.2312 89.7099 93.4748 90.2761 92.9179C90.8423 92.361 91.6039 92.0478 92.3981 92.0454H274.169L273.683 91.5587L273.693 98.9487ZM274.189 91.0024H92.418C91.3642 91.0024 90.3536 91.421 89.6085 92.1661C88.8634 92.9113 88.4448 93.9218 88.4448 94.9756V102.922H88.9315H270.703C271.757 102.922 272.767 102.503 273.512 101.758C274.257 101.013 274.676 100.002 274.676 98.9487V91.0024H274.189Z" fill="#010101"/>
<path d="M105.301 94.2008C105.897 94.2008 106.195 94.3796 106.195 94.7471C106.195 95.1146 105.897 95.2835 105.301 95.2835H98.2486V96.6939H105.301C105.897 96.6939 106.195 96.8727 106.195 97.2402C106.195 97.6077 105.897 97.7766 105.301 97.7766H98.2486V99.7632C98.2486 100.121 97.9506 100.3 97.3547 100.3C96.7587 100.3 96.4607 100.121 96.4607 99.7632V94.7967C96.4607 94.5385 96.6991 94.2604 97.3547 94.2604H105.301" fill="#010101"/>
<path d="M125.216 99.7433C125.216 100.101 124.928 100.28 124.332 100.28C123.736 100.28 123.438 100.101 123.438 99.7433V94.7769C123.438 94.4193 123.736 94.2405 124.332 94.2405C124.928 94.2405 125.216 94.4193 125.216 94.7769V99.7433Z" fill="#010101"/>
<path d="M153.137 94.7471C153.137 95.1047 152.83 95.2835 152.234 95.2835H149.154V99.7433C149.154 100.101 148.856 100.28 148.26 100.28C147.664 100.28 147.366 100.101 147.366 99.7433V95.2835H144.307C143.711 95.2835 143.413 95.1047 143.413 94.7471C143.413 94.3796 143.711 94.2008 144.307 94.2008H152.253C152.839 94.2008 153.147 94.3796 153.147 94.7471" fill="#010101"/>
<path d="M180.353 99.7631C180.353 100.18 180.036 100.498 179.44 100.379C179.003 100.299 177.096 99.2565 173.748 97.0117L172.417 96.1177V99.7432C172.417 100.101 172.119 100.28 171.523 100.28C170.937 100.28 170.639 100.101 170.639 99.7432V94.7073C170.639 93.714 171.632 94.1212 171.632 94.1212C172.01 94.2802 174.086 95.5118 178.099 98.1441L178.615 98.4818V94.7371C178.615 94.3795 178.903 94.2007 179.489 94.2007C180.075 94.2007 180.393 94.3795 180.393 94.7371V99.7631" fill="#010101"/>
<path d="M208.285 99.7333C208.285 100.101 207.987 100.28 207.391 100.28H199.445C199.196 100.28 198.57 100.28 198.551 99.7433V94.7769C198.551 94.2604 199.057 94.2504 199.445 94.2405H207.391C207.987 94.2405 208.285 94.4193 208.285 94.7868C208.285 95.1543 207.987 95.3232 207.391 95.3232H200.338V96.7336H207.391C207.987 96.7336 208.285 96.9124 208.285 97.2799C208.285 97.6474 207.987 97.8163 207.391 97.8163H200.338V99.2268H207.391C207.987 99.2268 208.285 99.4155 208.285 99.7731" fill="#010101"/>
<path d="M235.56 99.7433C235.56 100.2 235.054 100.28 234.666 100.28H226.72C226.124 100.28 225.826 100.101 225.826 99.7334C225.826 99.3659 226.124 99.1871 226.72 99.1871H233.802V97.8064H226.651C225.945 97.8064 225.836 97.4985 225.836 97.1409V94.7272C225.836 94.2504 226.492 94.2107 226.73 94.2008H234.676C235.272 94.2008 235.57 94.3796 235.57 94.7471C235.57 95.1146 235.272 95.2835 234.676 95.2835H227.624V96.7237H234.796C235.64 96.7237 235.61 97.1906 235.61 97.5481V99.7433" fill="#010101"/>
<path d="M263.233 99.7433C263.233 100.2 262.737 100.28 262.339 100.28H254.393C253.797 100.28 253.499 100.101 253.499 99.7334C253.499 99.3659 253.797 99.1871 254.393 99.1871H261.445V97.8064H254.314C253.618 97.8064 253.499 97.4985 253.499 97.1409V94.7272C253.499 94.2504 254.155 94.2107 254.393 94.2008H262.339C262.935 94.2008 263.233 94.3796 263.233 94.7471C263.233 95.1146 262.935 95.2835 262.339 95.2835H255.297V96.7237H262.419C263.273 96.7237 263.233 97.1906 263.233 97.5481V99.7433Z" fill="#010101"/>
<path d="M270.623 84.6354C270.955 84.6315 271.28 84.7263 271.557 84.9077C271.834 85.089 272.051 85.3489 272.18 85.654C272.309 85.9591 272.344 86.2958 272.282 86.621C272.219 86.9463 272.06 87.2455 271.827 87.4804C271.593 87.7154 271.295 87.8756 270.97 87.9404C270.645 88.0053 270.308 87.972 270.002 87.8448C269.696 87.7176 269.435 87.5022 269.252 87.226C269.069 86.9499 268.973 86.6255 268.974 86.2942C268.972 86.0765 269.013 85.8604 269.094 85.6586C269.176 85.4568 269.297 85.2734 269.451 85.1189C269.604 84.9645 269.787 84.8422 269.988 84.7592C270.19 84.6762 270.406 84.6341 270.623 84.6354ZM270.623 84.8937C270.342 84.8798 270.063 84.9506 269.822 85.0969C269.581 85.2432 269.389 85.4583 269.272 85.7145C269.154 85.9707 269.116 86.2562 269.163 86.5342C269.209 86.8122 269.337 87.07 269.532 87.2743C269.726 87.4785 269.977 87.62 270.252 87.6803C270.527 87.7405 270.814 87.717 271.076 87.6126C271.338 87.5082 271.563 87.3277 271.721 87.0945C271.879 86.8613 271.964 86.586 271.964 86.3042C271.971 86.123 271.941 85.9423 271.877 85.7727C271.813 85.6032 271.716 85.4481 271.591 85.3167C271.466 85.1853 271.316 85.0802 271.15 85.0076C270.984 84.9349 270.805 84.8962 270.623 84.8937ZM270.315 87.2577H270.027V85.4102C270.199 85.3976 270.372 85.3976 270.544 85.4102C270.746 85.3968 270.947 85.4454 271.12 85.5493C271.176 85.5939 271.221 85.6516 271.251 85.7173C271.28 85.783 271.293 85.8548 271.289 85.9267C271.29 86.032 271.255 86.1345 271.19 86.2175C271.125 86.3004 271.034 86.359 270.931 86.3836C271.09 86.3836 271.199 86.5624 271.239 86.8306C271.252 86.9887 271.292 87.1433 271.358 87.2875H271.05C270.978 87.1415 270.934 86.9831 270.921 86.8207C270.919 86.7722 270.907 86.7247 270.885 86.6814C270.863 86.638 270.833 86.5996 270.795 86.5687C270.758 86.5379 270.714 86.5152 270.668 86.5021C270.621 86.489 270.572 86.4859 270.524 86.4929H270.315V87.2577ZM270.315 86.2644H270.554C270.792 86.2644 271.001 86.175 271.001 85.9466C271.001 85.7181 270.882 85.6287 270.554 85.6287H270.335L270.315 86.2644Z" fill="#010101"/>
<defs>
<filter id="filter0_d_0_644" x="0" y="0" width="361" height="208" filterUnits="userSpaceOnUse" color-interpolation-filters="sRGB">
<feFlood flood-opacity="0" result="BackgroundImageFix"/>
<feColorMatrix in="SourceAlpha" type="matrix" values="0 0 0 0 0 0 0 0 0 0 0 0 0 0 0 0 0 0 127 0" result="hardAlpha"/>
<feOffset dy="20"/>
<feGaussianBlur stdDeviation="25"/>
<feComposite in2="hardAlpha" operator="out"/>
<feColorMatrix type="matrix" values="0 0 0 0 0.192157 0 0 0 0 0.192157 0 0 0 0 0.192157 0 0 0 0.05 0"/>
<feBlend mode="normal" in2="BackgroundImageFix" result="effect1_dropShadow_0_644"/>
<feBlend mode="normal" in="SourceGraphic" in2="effect1_dropShadow_0_644" result="shape"/>
</filter>
</defs>
</svg>
