<svg width="361" height="208" viewBox="0 0 361 208" fill="none" xmlns="http://www.w3.org/2000/svg">
<g filter="url(#filter0_d_0_597)">
<rect x="50" y="30" width="261" height="108" rx="10" fill="white"/>
</g>
<path fill-rule="evenodd" clip-rule="evenodd" d="M108.753 71.9072C112.047 71.9673 112.01 72.1297 114.17 70.743C115.648 69.8026 117.095 68.8142 118.509 67.7795C120.716 66.1618 120.937 65.4775 117.027 64.6043C113.845 63.8935 112.88 63.6373 109.513 65.5569C104.821 68.2317 91.0968 77.8342 77.1261 91.1699C73.5275 91.8038 70.564 93.1809 69.401 94.0264C68.2368 94.8743 68.1526 95.0932 69.2952 96.7794C70.8563 99.0814 70.9164 99.1331 73.5023 97.8907C74.8782 97.228 76.9156 96.0373 78.7149 94.6602C86.6528 93.1809 104.328 93.075 126.131 99.2125C128.064 99.7573 128.599 100.058 127.189 96.9899C125.84 94.0516 125.998 94.2104 122.215 93.2855C108.151 89.8445 93.109 89.3695 84.4302 90.215C93.2136 82.9145 100.074 77.0933 108.753 71.9072Z" fill="black"/>
<path fill-rule="evenodd" clip-rule="evenodd" d="M129.077 67.1444C127.528 67.5521 122.939 68.9437 120.928 69.5787C118.917 70.2137 118.724 70.2149 118.811 72.1189C118.917 74.4473 119.129 74.4473 120.504 73.9181C121.88 73.3889 128.575 71.3082 130.506 70.7562C131.988 70.3328 132.017 69.9251 131.776 68.5335C131.419 66.4697 131.09 66.6152 129.077 67.1444ZM113.44 75.2411C111.931 76.4318 106.057 81.5915 102.644 85.481C101.712 86.543 101.692 86.1955 102.565 88.8943C102.98 90.1764 103.357 92.0707 105.184 90.0057C107.01 87.9406 115.186 81.1152 116.774 79.8451C118.361 78.575 118.377 78.3273 117.012 75.9555C115.505 73.3372 114.948 74.0504 113.44 75.2411Z" fill="black"/>
<path fill-rule="evenodd" clip-rule="evenodd" d="M145.335 63.891C141.048 64.1291 137.792 66.4311 133.11 70.5589C130.701 72.6761 128.352 74.8615 126.067 77.1125C123.28 76.3788 120.906 75.6211 120.409 75.401C119.695 75.0835 119.298 75.1629 119.457 76.1948C119.693 77.7295 120.097 79.2172 122.835 80.3995C120.628 82.7132 118.495 85.097 116.44 87.5472C115.564 88.5924 115.567 88.7355 116.758 90.5637C117.852 92.2414 118.441 91.9287 119.139 91.1975C121.516 88.7127 124.649 85.297 128.136 81.8524C130.398 82.3347 133.001 82.6281 134.446 82.8145C133.86 83.5516 133.3 84.3089 132.767 85.0853C131.806 86.4925 131.974 87.4667 133.005 89.1324C134.037 90.8006 135.307 92.2282 139.118 90.72C142.927 89.2118 146.261 86.9098 147.056 85.6385C147.849 84.3697 147.929 84.1303 145.944 84.6872C143.96 85.244 141.42 86.4323 137.451 86.9892C138.009 85.9224 139.049 84.5982 140.269 83.2571C143.613 83.4087 148.504 83.3377 152.533 81.3532C155.113 80.082 154.597 77.7812 153.087 75.5586C151.58 73.3359 150.071 71.7483 145.468 73.6534C142.823 74.7479 140.102 76.7877 137.646 79.2268C135.82 79.0092 133.196 78.7037 131.751 78.4138C134.95 75.496 138.318 72.7839 141.602 70.8752C144.84 68.9941 146.603 69.2876 147.238 70.7958C147.668 71.8145 148.459 72.1609 149.302 71.5102C150.175 70.8343 150.771 69.6051 150.691 68.335C150.511 65.4196 148.664 63.7058 145.335 63.891ZM147.943 76.4822C150.96 75.2122 152.586 77.721 149.359 78.4956C147.664 78.9021 145.947 79.3375 144.175 79.4554C145.633 78.1925 147.199 76.7961 147.943 76.4822ZM214.482 65.6626C214.027 66.021 212.065 68.0175 209.45 70.7345C206 71.2288 202.485 71.7952 198.924 72.4363C196.39 72.8921 196.92 73.3876 197.445 75.0823C197.868 76.4594 198.222 77.015 199.667 76.6699C200.966 76.3584 202.305 76.0685 203.66 75.7859C199.195 78.4246 191.708 82.3888 185.084 86.1954C187.374 83.8267 189.739 81.5324 192.176 79.3158C193.233 78.3633 192.915 78.0458 191.858 76.2465C190.705 74.2873 190.587 73.7064 189.105 74.8694C187.626 76.0336 180.216 83.8657 176.194 88.311C175.19 89.4223 175.559 90.3219 176.935 91.6978C178.311 93.0737 178.628 93.4971 181.061 92.1212C183.437 90.7801 194.397 84.2987 200.782 79.8559C196.849 84.0269 193.204 87.9405 191.621 89.6881C190.618 90.797 190.881 91.1698 192.257 92.4387C193.686 93.7593 193.951 94.238 196.385 92.8645C198.49 91.6738 210.153 83.5879 217.214 78.5461C214.294 81.2907 210.673 84.965 208.116 88.3122C207.205 89.5077 207.271 89.7939 208.647 91.3827C210.021 92.9703 210.34 93.0761 211.609 91.8061C212.88 90.5348 220.183 84.0798 226.744 81.328C223.676 85.6674 221.877 87.7842 220.923 88.9496C219.972 90.1126 220.395 90.7212 222.194 92.1236C223.653 93.2626 223.806 93.087 225.593 91.9516C228.238 90.2738 231.355 89.0675 234.453 87.7794C234.621 89.8541 235.607 92.2282 237.524 92.2282C239.809 92.2282 248.423 87.3332 256.723 81.5505C257.376 82.3876 258.125 83.0046 258.798 83.5362C255.606 84.9794 252.716 86.4311 250.738 87.5725C249.136 88.4986 248.939 88.418 249.681 90.0056C250.421 91.5932 250.097 91.7555 251.375 91.9107C262.117 93.2217 266.364 89.7939 266.364 86.4071C266.364 84.9181 265.494 83.8886 264.626 83.1441C266.555 82.2168 269.291 81.2967 271.673 80.3947C272.481 83.5626 276.442 83.832 276.747 85.9585C277.006 87.7673 271.044 88.5238 268.715 88.1005C266.387 87.6771 267.207 89.0073 268.609 90.2173C270.157 91.5535 270.507 92.3569 273.796 92.1224C278.451 91.7916 283.001 90.0056 283.001 87.0433C283.001 82.9144 278.173 81.1945 277.394 79.5275C276.765 78.1817 278.769 77.5033 281.31 77.9399C282.316 79.1559 282.076 79.1667 284.287 78.7734C285.058 78.6404 285.825 78.4884 286.589 78.3176C287.165 78.1793 287.106 78.1793 286.979 77.4637C286.899 76.9814 286.79 76.5043 286.654 76.0348C286.336 74.9235 286.282 74.7648 279.721 74.2356C275.58 73.9024 271.948 75.8388 271.566 78.8023C269.064 79.5768 265.639 80.6268 262.87 81.773C259.96 79.3688 260.122 77.8209 263.346 77.8209C265.885 77.8209 267.391 78.0458 267.99 78.1516C269.338 78.3897 269.816 77.887 269.575 76.3523C269.373 75.0438 269.39 75.0258 268.345 74.5663C267.354 74.1297 265.131 73.7076 263.966 73.7076C257.168 73.7076 254.518 76.9549 255.864 80.1361C252.333 82.2457 244.206 86.2327 242.287 87.0433C240.48 87.8022 239.447 88.4673 239.867 85.7588C245.033 84.0209 253.397 81.1801 253.397 78.575C253.397 75.294 250.647 74.4472 247.682 74.4472C240.741 74.4472 235.936 80.6845 234.728 85.0973C233.412 85.5483 231.364 86.021 229.813 86.5117C230.898 85.03 232.261 82.1627 232.987 80.373C233.729 78.5473 233.729 78.5208 232.67 77.4348C231.587 76.3247 231.533 76.3511 230.447 76.564C228.756 76.8936 225.366 78.4691 223.144 79.9497C224.626 78.4691 224.838 78.1504 225.475 77.4107C226.109 76.6699 225.687 76.1395 224.627 75.0811C223.413 73.8663 223.38 73.4586 222.424 74.078C218.813 76.0781 209.46 81.7321 200.406 86.9339C202.602 84.6691 209.057 78.332 213.408 74.0985C225.09 72.4604 238.254 71.9179 252.161 72.9643C254.522 73.1411 253.643 72.2234 252.481 70.7417C251.316 69.2599 250.997 68.7656 248.988 68.6249C240.076 68.0031 229.489 68.3795 217.974 69.6532C218.462 68.9989 218.107 68.519 217.237 67.0373C216.082 65.0805 215.964 64.4996 214.482 65.6626ZM252.41 89.6388C254.362 88.3795 258.281 86.5213 260.561 85.2512C262.316 87.1612 259.481 88.9701 252.41 89.6388ZM249.162 77.1028C251.811 77.6332 248.243 79.7729 240.942 82.7773C243.007 79.673 246.84 76.6374 249.162 77.1028Z" fill="black"/>
<path fill-rule="evenodd" clip-rule="evenodd" d="M200.874 67.4306C200.098 65.457 200.021 65.4233 199.011 65.4233C185.992 65.4233 174.337 66.7956 162.571 68.9148C160.464 69.2949 160.785 69.6797 161.597 71.3407C162.428 73.0413 163.069 73.0786 163.911 72.9487C165.467 72.6991 167.02 72.4309 168.57 72.1441C166.767 73.7419 165.01 75.3911 163.302 77.0897C161.421 77.3495 159.549 77.6684 157.688 78.0458C155.878 78.4187 156.066 78.5534 156.686 80.3538C157.154 81.7153 157.458 82.1988 158.216 82.0677L158.525 82.0172C154.706 86.1089 151.085 90.3605 148.53 93.8555C147.608 95.1172 147.462 95.7655 148.286 98.0578C149.263 100.778 149.643 100.902 150.8 99.3808C154.148 94.9741 160.545 87.5281 166.795 80.9949C170.818 80.699 175.085 80.4801 180.559 80.7014C182.264 80.77 182.222 80.159 181.372 77.9147C180.634 75.9699 180.443 75.8136 179.385 75.8232C177.323 75.8413 174.569 75.9627 171.538 76.1997C173.823 73.9782 175.963 72.0431 177.783 70.6118C181.127 70.2306 185.915 69.8577 189.551 69.889C190.385 71.378 190.916 71.3828 192.292 71.1831C193.671 70.9835 197.324 70.5938 199.393 70.1861C201.61 69.7531 201.701 69.539 200.874 67.4306Z" fill="black"/>
<path fill-rule="evenodd" clip-rule="evenodd" d="M108.272 70.0309C111.566 70.0899 111.53 70.2534 113.69 68.8667C115.168 67.9266 116.616 66.9382 118.029 65.9032C120.235 64.2856 120.456 63.6012 116.547 62.728C113.365 62.0172 112.401 61.7611 109.033 63.6806C104.342 66.3554 90.6169 75.9579 76.6461 89.2949C73.0476 89.9287 70.0841 91.3058 68.9199 92.1513C67.7544 92.9968 67.6715 93.2181 68.814 94.9019C70.3752 97.2063 70.4353 97.2581 73.0223 96.0157C74.3982 95.353 76.4357 94.1623 78.2337 92.7851C86.1716 91.3058 103.847 91.2 125.65 97.3374C127.581 97.8799 128.118 98.1829 126.708 95.1148C125.359 92.1766 125.517 92.3353 121.734 91.4104C107.67 87.9671 92.6278 87.4944 83.949 88.3399C92.7337 81.0382 99.5928 75.2171 108.272 70.0309Z" fill="#CF4044"/>
<path fill-rule="evenodd" clip-rule="evenodd" d="M128.596 65.2681C127.047 65.6747 122.458 67.0662 120.447 67.7012C118.436 68.3363 118.243 68.3387 118.33 70.2414C118.436 72.5698 118.647 72.5698 120.023 72.0418C121.399 71.5126 128.094 69.4319 130.025 68.8799C131.507 68.4565 131.536 68.0488 131.295 66.6573C130.939 64.5934 130.608 64.7389 128.596 65.2681ZM112.959 73.3648C111.45 74.5555 105.576 79.7152 102.163 83.6048C101.231 84.6668 101.21 84.3192 102.084 87.0181C102.5 88.3002 102.877 90.1945 104.703 88.1294C106.53 86.0643 114.705 79.2389 116.293 77.9688C117.88 76.6988 117.896 76.451 116.531 74.0792C115.024 71.4597 114.467 72.1729 112.959 73.3648Z" fill="#CF4044"/>
<path fill-rule="evenodd" clip-rule="evenodd" d="M144.853 62.0136C140.568 62.2518 137.312 64.5538 132.629 68.6815C130.22 70.7991 127.871 72.9845 125.586 75.2351C122.799 74.5002 120.424 73.7437 119.928 73.5236C119.214 73.2061 118.817 73.2855 118.976 74.3174C119.212 75.8533 119.616 77.3399 122.355 78.5221C120.148 80.8355 118.015 83.2185 115.959 85.6675C115.083 86.715 115.086 86.8582 116.277 88.6839C117.371 90.3629 117.959 90.0514 118.658 89.3201C121.036 86.8353 124.168 83.4184 127.656 79.9738C129.918 80.4561 132.52 80.7496 133.966 80.936C133.38 81.673 132.82 82.4304 132.287 83.2067C131.326 84.6139 131.494 85.5893 132.526 87.2551C133.558 88.9232 134.828 90.3509 138.638 88.8426C142.448 87.3344 145.782 85.0324 146.576 83.7624C147.37 82.4923 147.449 82.2542 145.464 82.8098C143.48 83.3643 140.94 84.555 136.971 85.1118C137.53 84.045 138.569 82.7196 139.79 81.3798C143.135 81.5301 148.025 81.4604 152.053 79.4759C154.634 78.2046 154.117 75.9038 152.609 73.6812C151.1 71.4586 149.592 69.871 144.988 71.7761C142.343 72.8706 139.62 74.9104 137.164 77.3495C135.34 77.1318 132.716 76.8263 131.271 76.5364C134.47 73.6187 137.838 70.9065 141.123 68.9978C144.36 67.1168 146.125 67.4102 146.759 68.9184C147.188 69.9371 147.981 70.2835 148.822 69.6328C149.697 68.9581 150.292 67.7277 150.212 66.4577C150.03 63.5423 148.183 61.8284 144.853 62.0136ZM147.462 74.6061C150.479 73.336 152.105 75.8437 148.878 76.6194C147.183 77.0259 145.467 77.4613 143.695 77.5792C145.152 76.3151 146.719 74.9188 147.462 74.6061ZM214.004 63.7864C213.548 64.1448 211.584 66.1414 208.972 68.8583C205.519 69.3526 202.004 69.9203 198.445 70.5601C195.911 71.016 196.442 71.5103 196.964 73.2061C197.387 74.582 197.741 75.1389 199.186 74.7937C200.485 74.4834 201.824 74.1923 203.179 73.9109C198.714 76.5497 191.227 80.5126 184.606 84.3192C186.894 81.9504 189.259 79.656 191.696 77.4397C192.755 76.4871 192.438 76.1684 191.378 74.3704C190.227 72.4123 190.107 71.8302 188.628 72.9944C187.146 74.1587 179.736 81.9908 175.715 86.436C174.711 87.5473 175.08 88.447 176.456 89.8229C177.832 91.1988 178.149 91.6221 180.584 90.2462C182.96 88.9052 193.918 82.4237 200.304 77.9809C196.373 82.1519 192.725 86.0632 191.145 87.8131C190.139 88.922 190.403 89.2949 191.779 90.5637C193.209 91.8843 193.472 92.363 195.906 90.9871C198.011 89.7988 209.676 81.7141 216.735 76.6699C213.815 79.4146 210.195 83.0888 207.64 86.4372C206.726 87.6327 206.792 87.919 208.168 89.5078C209.544 91.0965 209.862 91.2012 211.133 89.9311C212.402 88.6598 219.705 82.2048 226.265 79.453C223.197 83.7924 221.398 85.9092 220.447 87.0722C219.493 88.2377 219.916 88.8463 221.716 90.2486C223.177 91.3876 223.33 91.2096 225.117 90.0766C227.762 88.3988 230.879 87.1925 233.975 85.9044C234.144 87.9791 235.128 90.3533 237.045 90.3533C239.331 90.3533 247.944 85.4582 256.244 79.6743C256.897 80.5114 257.647 81.1284 258.321 81.66C255.129 83.1033 252.237 84.555 250.262 85.6963C248.658 86.6224 248.463 86.5419 249.202 88.1294C249.944 89.717 249.619 89.8794 250.896 90.0345C261.639 91.3431 265.885 87.9178 265.885 84.5309C265.885 83.0407 265.016 82.0124 264.147 81.2679C266.077 80.3406 268.813 79.4206 271.194 78.5185C272.002 81.6853 275.965 81.9547 276.268 84.0811C276.527 85.8912 270.567 86.6477 268.237 86.2243C265.908 85.801 266.728 87.1312 268.131 88.3411C269.679 89.6773 270.029 90.4783 273.317 90.2462C277.975 89.9155 282.525 88.1294 282.525 85.1647C282.525 81.0382 277.695 79.3183 276.915 77.6514C276.286 76.3055 278.293 75.6272 280.831 76.0638C281.839 77.2797 281.6 77.2905 283.808 76.8973C284.579 76.7637 285.347 76.6117 286.11 76.4414C286.686 76.3019 286.627 76.3019 286.5 75.5875C286.42 75.1052 286.311 74.6281 286.175 74.1587C285.858 73.0474 285.804 72.8886 279.243 72.3594C275.102 72.025 271.47 73.9626 271.089 76.9261C268.585 77.7007 265.16 78.7507 262.391 79.8956C259.483 77.4914 259.643 75.9447 262.868 75.9447C265.407 75.9447 266.912 76.1696 267.511 76.2743C268.86 76.5124 269.337 76.0097 269.099 74.475C268.895 73.1664 268.911 73.1484 267.869 72.6889C266.875 72.2524 264.653 71.829 263.489 71.829C256.689 71.829 254.04 75.0763 255.386 78.2587C251.854 80.3683 243.728 84.3565 241.808 85.1647C240.002 85.9261 238.971 86.5888 239.391 83.8826C244.554 82.1435 252.921 79.3027 252.921 76.6988C252.921 73.4178 250.168 72.5711 247.206 72.5711C240.263 72.5711 235.458 78.8084 234.249 83.2212C232.933 83.6722 230.887 84.1448 229.335 84.6355C230.42 83.1538 231.785 80.2865 232.511 78.4969C233.251 76.6699 233.251 76.6447 232.191 75.5586C231.109 74.4485 231.055 74.475 229.969 74.6867C228.28 75.0174 224.889 76.5918 222.668 78.0735C224.147 76.5918 224.361 76.2742 224.997 75.5334C225.63 74.7925 225.208 74.2633 224.149 73.2049C222.934 71.989 222.901 71.5825 221.945 72.2006C218.335 74.2008 208.984 79.8547 199.927 85.0577C202.123 82.793 208.578 76.4559 212.93 72.2235C224.614 70.5854 237.775 70.0418 251.685 71.0881C254.043 71.2661 253.167 70.3473 252.002 68.8655C250.838 67.3838 250.518 66.8895 248.51 66.7487C239.598 66.1269 229.01 66.5034 217.495 67.7771C217.986 67.1228 217.631 66.6441 216.758 65.1599C215.603 63.2031 215.485 62.621 214.004 63.7864ZM251.931 87.7602C253.881 86.5034 257.799 84.6452 260.082 83.3739C261.837 85.2838 259.002 87.0927 251.931 87.7602ZM248.68 75.2243C251.332 75.7547 247.762 77.8943 240.461 80.8987C242.525 77.7957 246.359 74.7612 248.68 75.2243Z" fill="#CF4044"/>
<path fill-rule="evenodd" clip-rule="evenodd" d="M200.393 65.5532C199.619 63.5795 199.542 63.5447 198.53 63.5447C185.511 63.5447 173.857 64.917 162.09 67.0362C159.984 67.415 160.304 67.8023 161.115 69.462C161.948 71.1627 162.586 71.2012 163.429 71.0701C164.87 70.8464 166.43 70.5661 168.089 70.2654C166.286 71.8626 164.529 73.5119 162.822 75.211C160.941 75.4708 159.069 75.7896 157.208 76.1672C155.398 76.5412 155.588 76.6747 156.206 78.4752C156.674 79.8367 156.977 80.319 157.737 80.1891L158.045 80.1386C154.226 84.229 150.605 88.4818 148.052 91.9769C147.129 93.2386 146.984 93.8868 147.806 96.1792C148.783 98.8997 149.163 99.0236 150.32 97.5022C153.668 93.0954 160.065 85.6494 166.314 79.1162C170.337 78.8204 174.603 78.6015 180.077 78.8228C181.782 78.8925 181.742 78.2816 180.891 76.0373C180.153 74.0925 179.962 73.9349 178.904 73.9458C176.843 73.9638 174.088 74.0853 171.057 74.3222C173.341 72.1008 175.482 70.1656 177.302 68.7344C180.646 68.3531 185.433 67.9803 189.073 68.0116C189.906 69.5005 190.435 69.5053 191.811 69.3045C193.189 69.1048 196.843 68.7163 198.912 68.3086C201.127 67.8756 201.22 67.6616 200.393 65.5532Z" fill="#CF4044"/>
<path fill-rule="evenodd" clip-rule="evenodd" d="M171.737 102.839C171.462 103.226 170.944 103.825 170.54 103.825C170.202 103.825 170.059 103.552 170.059 103.071C170.059 102.317 170.527 98.6003 170.683 98.1589C170.462 98.2227 170.254 98.2768 170.032 98.3393V98.1324L171.541 97.4301C171.293 98.6376 170.838 102.199 170.838 102.81C170.838 103.085 170.903 103.174 171.02 103.174C171.111 103.174 171.293 103.031 171.604 102.706L171.737 102.839ZM171.347 95.0655C171.502 95.0655 171.788 95.1569 171.788 95.6621C171.788 96.0397 171.593 96.3007 171.281 96.3007C171.073 96.3007 170.813 96.1949 170.813 95.727C170.814 95.2086 171.086 95.0655 171.347 95.0655ZM178.105 102.994C177.741 103.369 177.312 103.825 176.831 103.825C176.403 103.825 176.325 103.409 176.325 102.928C176.325 102.07 176.897 99.0826 176.897 98.6665C176.897 98.5089 176.833 98.4692 176.754 98.4692C175.961 98.4692 174.102 101.915 173.829 103.616L173.114 103.695C173.335 101.809 173.647 99.8355 173.841 98.1842C173.62 98.2359 173.413 98.2876 173.191 98.3393V98.1324L174.776 97.4301C174.543 98.5342 174.321 100.119 174.152 101.459H174.178C174.646 100.069 176.206 97.56 177.272 97.56C177.635 97.56 177.739 97.7548 177.739 98.1962C177.739 98.7807 177.103 102.004 177.103 102.773C177.103 103.019 177.195 103.174 177.35 103.174C177.531 103.174 177.753 102.979 177.935 102.81L178.105 102.994ZM179.64 97.7692H180.199L180.42 96.0518L181.213 95.7535L180.94 97.7692H182.045V98.1589H180.888C180.525 100.783 180.42 101.797 180.42 102.563C180.42 103.056 180.537 103.174 180.771 103.174C181.044 103.174 181.278 102.928 181.734 102.423L181.903 102.578C181.474 103.214 181.046 103.825 180.421 103.825C180.032 103.825 179.642 103.46 179.642 102.89C179.642 102.111 180.019 99.2233 180.15 98.1589H179.642V97.7692H179.64ZM186.24 102.2C185.733 102.917 184.89 103.826 183.955 103.826C182.836 103.826 182.654 102.84 182.654 101.953C182.654 99.4194 184.46 97.4313 185.747 97.4313C186.318 97.4313 186.578 97.8847 186.578 98.4836C186.578 99.862 184.875 101.059 183.536 101.368C183.506 101.614 183.494 101.862 183.499 102.11C183.499 102.889 183.772 103.305 184.253 103.305C184.929 103.305 185.656 102.526 186.06 102.044L186.24 102.2ZM185.265 98.0819C184.966 98.0819 184.745 98.1337 184.473 98.3922C183.966 98.8878 183.642 100.161 183.576 101.005C184.823 100.655 185.799 99.6419 185.799 98.6532C185.798 98.2768 185.577 98.0819 185.265 98.0819ZM187.644 98.1336L189.229 97.4313C189.049 98.3371 188.893 99.2475 188.761 100.161H188.786C189.188 99.186 189.957 97.4313 190.982 97.4313C191.138 97.4313 191.281 97.4565 191.476 97.4974L191.32 98.2768H191.034C190.137 98.2768 189.552 99.186 189.018 100.419C188.668 101.225 188.41 102.85 188.279 103.616L187.564 103.695C187.786 101.809 188.097 99.8355 188.292 98.1842L187.641 98.3393V98.1336H187.644ZM196.274 103.046C195.988 103.332 195.52 103.825 195.119 103.825C194.648 103.825 194.638 103.384 194.638 102.942C194.638 102.395 194.766 101.173 194.872 100.29L194.844 100.265C194.391 101.616 193.494 103.826 192.364 103.826C191.585 103.826 191.337 103.02 191.337 102.137C191.337 99.7068 193.001 97.4325 194.716 97.4325C195.054 97.4325 195.289 97.5094 195.47 97.5612L195.977 97.3026C195.756 98.8336 195.418 101.641 195.418 102.786C195.418 103.059 195.443 103.242 195.599 103.242C195.73 103.242 196.015 102.969 196.131 102.892L196.274 103.046ZM192.648 103.046C193.56 103.046 195.12 98.8481 195.12 98.1854C195.12 98.0567 194.716 98.0158 194.455 98.0158C194.028 98.0158 193.637 98.0928 193.325 98.4428C192.637 99.2221 192.118 101.121 192.118 102.135C192.117 102.759 192.257 103.046 192.648 103.046ZM200.59 101.784C200.355 102.474 199.42 103.825 198.445 103.825C197.471 103.825 197.107 102.696 197.107 101.525C197.107 99.524 198.472 97.4313 200.094 97.4313C200.329 97.4313 200.498 97.4565 200.668 97.5082L200.459 98.2106C200.252 98.1854 200.017 98.1337 199.667 98.1445C199.056 98.1445 198.899 98.2359 198.615 98.6773C198.263 99.2221 197.887 100.55 197.887 101.367C197.887 102.172 198.042 103.109 198.627 103.109C199.421 103.109 200.109 102.198 200.356 101.705L200.59 101.784ZM202.044 97.7692H202.603L202.824 96.0518L203.618 95.7535L203.345 97.7692H204.449V98.1589H203.291C202.929 100.783 202.823 101.797 202.823 102.563C202.823 103.056 202.941 103.174 203.176 103.174C203.449 103.174 203.681 102.928 204.137 102.423L204.306 102.578C203.879 103.214 203.449 103.825 202.824 103.825C202.435 103.825 202.045 103.46 202.045 102.89C202.045 102.111 202.423 99.2233 202.553 98.1589H202.045V97.7692H202.044ZM207.139 102.839C206.863 103.226 206.345 103.825 205.943 103.825C205.605 103.825 205.462 103.552 205.462 103.071C205.462 102.317 205.93 98.6003 206.085 98.1589C205.864 98.2227 205.658 98.2768 205.437 98.3393V98.1324L206.945 97.4301C206.696 98.6376 206.243 102.199 206.243 102.81C206.243 103.085 206.306 103.174 206.423 103.174C206.514 103.174 206.696 103.031 207.007 102.706L207.139 102.839ZM206.749 95.0655C206.904 95.0655 207.19 95.1569 207.19 95.6621C207.19 96.0397 206.995 96.3007 206.683 96.3007C206.473 96.3007 206.215 96.1949 206.215 95.727C206.216 95.2086 206.488 95.0655 206.749 95.0655ZM207.983 98.1336L209.425 97.4313C209.425 99.263 209.605 101.486 209.841 102.851C210.556 102.005 211.765 99.8632 211.765 98.925C211.765 98.5233 211.585 98.4055 211.063 98.1336L211.556 97.4313C212.012 97.5347 212.48 97.9124 212.48 98.444C212.48 99.6936 210.582 102.552 209.816 103.696L209.257 103.825C208.881 102.095 208.581 98.8878 208.581 98.1854L207.984 98.3405V98.1336H207.983ZM216.587 102.2C216.08 102.917 215.234 103.826 214.3 103.826C213.181 103.826 213.001 102.84 213.001 101.953C213.001 99.4194 214.807 97.4313 216.092 97.4313C216.665 97.4313 216.923 97.8847 216.923 98.4836C216.923 99.862 215.222 101.059 213.883 101.368C213.852 101.614 213.839 101.862 213.844 102.11C213.844 102.889 214.117 103.305 214.598 103.305C215.274 103.305 216.003 102.526 216.404 102.044L216.587 102.2ZM215.612 98.0819C215.311 98.0819 215.09 98.1337 214.818 98.3922C214.31 98.8878 213.987 100.161 213.921 101.005C215.168 100.655 216.143 99.6419 216.143 98.6532C216.143 98.2768 215.922 98.0819 215.612 98.0819ZM220.876 97.7692C221.396 97.7692 221.616 97.5996 221.707 96.7421C221.877 94.8562 222.877 94.2188 223.8 94.2188H224.073C224.051 94.4602 224.011 94.6998 223.955 94.9356C223.775 94.908 223.565 94.8695 223.332 94.8695C222.799 94.8695 222.681 95.1425 222.553 96.0914L222.343 97.6369H223.579V98.1589H222.268L221.669 102.629C221.344 105.087 221.006 105.554 219.733 105.996L219.682 105.749C220.396 105.437 220.709 104.657 220.863 103.189C221.046 101.5 221.319 99.8078 221.528 98.1589H220.877V97.7692H220.876ZM225.553 102.839C225.28 103.226 224.762 103.825 224.358 103.825C224.022 103.825 223.879 103.552 223.879 103.071C223.879 102.317 224.347 98.6003 224.502 98.1589C224.281 98.2227 224.075 98.2768 223.854 98.3393V98.1324L225.36 97.4301C225.113 98.6376 224.66 102.199 224.66 102.81C224.66 103.085 224.724 103.174 224.84 103.174C224.932 103.174 225.113 103.031 225.425 102.706L225.553 102.839ZM225.164 95.0655C225.321 95.0655 225.605 95.1569 225.605 95.6621C225.605 96.0397 225.41 96.3007 225.1 96.3007C224.891 96.3007 224.632 96.1949 224.632 95.727C224.632 95.2086 224.905 95.0655 225.164 95.0655ZM226.958 97.7692H227.517L227.739 96.0518L228.53 95.7535L228.257 97.7692H229.361V98.1589H228.205C227.841 100.783 227.738 101.797 227.738 102.563C227.738 103.056 227.853 103.174 228.088 103.174C228.361 103.174 228.595 102.928 229.051 102.423L229.218 102.578C228.791 103.214 228.361 103.825 227.739 103.825C227.349 103.825 226.959 103.46 226.959 102.89C226.959 102.111 227.335 99.2233 227.467 98.1589H226.958V97.7692ZM235.535 102.994C235.17 103.369 234.741 103.825 234.261 103.825C233.832 103.825 233.754 103.409 233.754 102.928C233.754 102.07 234.325 99.0826 234.325 98.6665C234.325 98.5089 234.261 98.4692 234.182 98.4692C233.39 98.4692 231.532 101.915 231.257 103.616L230.542 103.695C230.764 101.809 231.075 99.8355 231.27 98.1842L230.619 98.3393V98.1324L232.204 97.4301C231.972 98.5342 231.751 100.119 231.581 101.459H231.607C232.075 100.069 233.634 97.56 234.7 97.56C235.064 97.56 235.168 97.7548 235.168 98.1962C235.168 98.7807 234.532 102.004 234.532 102.773C234.532 103.019 234.621 103.174 234.778 103.174C234.959 103.174 235.18 102.979 235.363 102.81L235.535 102.994ZM240.059 102.2C239.552 102.917 238.706 103.826 237.772 103.826C236.653 103.826 236.473 102.84 236.473 101.953C236.473 99.4194 238.279 97.4313 239.564 97.4313C240.138 97.4313 240.397 97.8847 240.397 98.4836C240.397 99.862 238.694 101.059 237.356 101.368C237.324 101.614 237.311 101.862 237.316 102.11C237.316 102.889 237.589 103.305 238.07 103.305C238.746 103.305 239.475 102.526 239.877 102.044L240.059 102.2ZM239.084 98.0819C238.783 98.0819 238.562 98.1337 238.29 98.3922C237.783 98.8878 237.459 100.161 237.393 101.005C238.643 100.655 239.618 99.6419 239.618 98.6532C239.617 98.2768 239.397 98.0819 239.084 98.0819ZM244.297 98.3405C243.932 98.2227 243.554 98.0819 243.035 98.0819C242.399 98.0819 241.707 98.2515 241.707 98.925C241.707 99.8078 244.138 100.68 244.138 101.836C244.138 103.031 243.008 103.825 241.942 103.825C241.552 103.825 241.059 103.748 240.706 103.512L240.838 102.773C241.15 102.942 241.565 103.174 242.203 103.174C242.994 103.174 243.553 102.81 243.553 102.225C243.553 101.198 241.124 100.433 241.124 99.3027C241.124 98.1072 242.319 97.4301 243.254 97.4301C243.604 97.4301 244.111 97.507 244.294 97.6369V98.3405H244.297ZM248.622 98.3405C248.257 98.2227 247.882 98.0819 247.36 98.0819C246.724 98.0819 246.034 98.2515 246.034 98.925C246.034 99.8078 248.465 100.68 248.465 101.836C248.465 103.031 247.333 103.825 246.267 103.825C245.879 103.825 245.384 103.748 245.034 103.512L245.162 102.773C245.475 102.942 245.89 103.174 246.528 103.174C247.321 103.174 247.881 102.81 247.881 102.225C247.881 101.198 245.45 100.433 245.45 99.3027C245.45 98.1072 246.645 97.4301 247.58 97.4301C247.932 97.4301 248.438 97.507 248.62 97.6369V98.3405H248.622ZM256.197 98.3405C255.833 98.2227 255.458 98.0819 254.936 98.0819C254.3 98.0819 253.61 98.2515 253.61 98.925C253.61 99.8078 256.04 100.68 256.04 101.836C256.04 103.031 254.911 103.825 253.844 103.825C253.454 103.825 252.961 103.748 252.611 103.512L252.74 102.773C253.052 102.942 253.467 103.174 254.105 103.174C254.898 103.174 255.458 102.81 255.458 102.225C255.458 101.198 253.027 100.433 253.027 99.3027C253.027 98.1072 254.223 97.4301 255.157 97.4301C255.509 97.4301 256.015 97.507 256.197 97.6369V98.3405ZM259.899 97.4313C261.004 97.4313 261.316 98.5606 261.316 99.536C261.316 101.357 260.261 103.825 258.418 103.825C257.403 103.825 257.039 102.758 257.039 101.901C257.038 100.471 258.027 97.4313 259.899 97.4313ZM258.793 103.307C259.094 103.307 259.352 103.201 259.572 102.981C260.248 102.306 260.536 99.9522 260.536 99.4338C260.536 98.4067 260.106 98.017 259.56 98.017C258.976 98.017 258.858 98.1974 258.468 98.978C258.143 99.6286 257.817 100.928 257.817 101.748C257.805 102.59 258.093 103.307 258.793 103.307ZM264.329 102.851C263.809 103.476 263.354 103.826 263.042 103.826C262.758 103.826 262.574 103.646 262.574 102.981C262.574 102.631 262.589 102.15 262.666 101.564L263.497 94.8574C263.285 94.937 263.068 94.9981 262.846 95.0403V94.831C263.29 94.6614 263.938 94.3776 264.369 94.131L263.445 101.096C263.393 101.552 263.302 102.424 263.302 102.774C263.302 103.112 263.379 103.175 263.471 103.175C263.589 103.175 263.681 103.098 264.134 102.697L264.329 102.851ZM270.631 102.902C270.215 103.358 269.877 103.826 269.409 103.826C269.045 103.826 268.813 103.528 268.813 102.84C268.813 102.359 268.916 101.369 269.034 100.604L269.009 100.579C268.1 102.827 267.372 103.827 266.396 103.827C266.007 103.827 265.68 103.515 265.68 102.918C265.68 101.671 266.279 98.551 266.279 98.1866L265.628 98.3417V98.1349L267.213 97.4325C266.915 98.7061 266.459 102.112 266.459 102.605C266.459 102.918 266.565 103.047 266.745 103.047C267.812 103.047 269.085 99.7465 269.449 97.7969L270.203 97.5624C269.957 99.0309 269.592 101.631 269.592 102.8C269.592 103.125 269.629 103.242 269.747 103.242C269.942 103.242 270.215 102.917 270.41 102.722L270.631 102.902ZM272.077 97.7692H272.636L272.857 96.0518L273.649 95.7535L273.376 97.7692H274.482V98.1589H273.324C272.96 100.783 272.856 101.797 272.856 102.563C272.856 103.056 272.974 103.174 273.206 103.174C273.482 103.174 273.714 102.928 274.17 102.423L274.339 102.578C273.91 103.214 273.482 103.825 272.857 103.825C272.468 103.825 272.078 103.46 272.078 102.89C272.078 102.111 272.453 99.2233 272.586 98.1589H272.078V97.7692H272.077ZM277.169 102.839C276.896 103.226 276.378 103.825 275.974 103.825C275.636 103.825 275.493 103.552 275.493 103.071C275.493 102.317 275.963 98.6003 276.118 98.1589C275.897 98.2227 275.689 98.2768 275.467 98.3393V98.1324L276.976 97.4301C276.729 98.6376 276.273 102.199 276.273 102.81C276.273 103.085 276.339 103.174 276.456 103.174C276.547 103.174 276.729 103.031 277.041 102.706L277.169 102.839ZM276.78 95.0655C276.937 95.0655 277.221 95.1569 277.221 95.6621C277.221 96.0397 277.026 96.3007 276.713 96.3007C276.507 96.3007 276.246 96.1949 276.246 95.727C276.246 95.2086 276.519 95.0655 276.78 95.0655ZM280.834 97.4313C281.94 97.4313 282.251 98.5606 282.251 99.536C282.251 101.357 281.198 103.825 279.355 103.825C278.339 103.825 277.976 102.758 277.976 101.901C277.975 100.471 278.964 97.4313 280.834 97.4313ZM279.73 103.307C279.875 103.308 280.019 103.28 280.153 103.224C280.287 103.168 280.408 103.085 280.509 102.981C281.185 102.306 281.47 99.9522 281.47 99.4338C281.47 98.4067 281.043 98.017 280.495 98.017C279.91 98.017 279.795 98.1974 279.405 98.978C279.079 99.6286 278.754 100.928 278.754 101.748C278.741 102.59 279.027 103.307 279.73 103.307ZM288.593 102.994C288.228 103.369 287.801 103.825 287.319 103.825C286.89 103.825 286.811 103.409 286.811 102.928C286.811 102.07 287.385 99.0826 287.385 98.6665C287.385 98.5089 287.319 98.4692 287.242 98.4692C286.448 98.4692 284.59 101.915 284.317 103.616L283.603 103.695C283.824 101.809 284.133 99.8355 284.329 98.1842C284.108 98.2359 283.902 98.2876 283.681 98.3393V98.1324L285.266 97.4301C285.031 98.5342 284.81 100.119 284.641 101.459H284.666C285.134 100.069 286.694 97.56 287.759 97.56C288.124 97.56 288.227 97.7548 288.227 98.1962C288.227 98.7807 287.591 102.004 287.591 102.773C287.591 103.019 287.682 103.174 287.837 103.174C288.02 103.174 288.241 102.979 288.422 102.81L288.593 102.994ZM293.014 98.3405C292.649 98.2227 292.272 98.0819 291.752 98.0819C291.116 98.0819 290.427 98.2515 290.427 98.925C290.427 99.8078 292.856 100.68 292.856 101.836C292.856 103.031 291.727 103.825 290.66 103.825C290.27 103.825 289.777 103.748 289.427 103.512L289.556 102.773C289.869 102.942 290.284 103.174 290.921 103.174C291.715 103.174 292.272 102.81 292.272 102.225C292.272 101.198 289.842 100.433 289.842 99.3027C289.842 98.1072 291.038 97.4301 291.972 97.4301C292.322 97.4301 292.83 97.507 293.013 97.6369V98.3405H293.014Z" fill="black"/>
<defs>
<filter id="filter0_d_0_597" x="0" y="0" width="361" height="208" filterUnits="userSpaceOnUse" color-interpolation-filters="sRGB">
<feFlood flood-opacity="0" result="BackgroundImageFix"/>
<feColorMatrix in="SourceAlpha" type="matrix" values="0 0 0 0 0 0 0 0 0 0 0 0 0 0 0 0 0 0 127 0" result="hardAlpha"/>
<feOffset dy="20"/>
<feGaussianBlur stdDeviation="25"/>
<feComposite in2="hardAlpha" operator="out"/>
<feColorMatrix type="matrix" values="0 0 0 0 0.192157 0 0 0 0 0.192157 0 0 0 0 0.192157 0 0 0 0.05 0"/>
<feBlend mode="normal" in2="BackgroundImageFix" result="effect1_dropShadow_0_597"/>
<feBlend mode="normal" in="SourceGraphic" in2="effect1_dropShadow_0_597" result="shape"/>
</filter>
</defs>
</svg>
